G04 (created by PCBNEW-RS274X (2011-nov-30)-testing) date Mon 05 Mar 2012 05:05:37 PM PST*
G01*
G70*
G90*
%MOIN*%
G04 Gerber Fmt 3.4, Leading zero omitted, Abs format*
%FSLAX34Y34*%
G04 APERTURE LIST*
%ADD10C,0.006000*%
%ADD11C,0.015000*%
%ADD12R,0.080000X0.080000*%
%ADD13C,0.080000*%
%ADD14C,0.075000*%
%ADD15R,0.075000X0.075000*%
%ADD16C,0.075100*%
%ADD17C,0.149900*%
G04 APERTURE END LIST*
G54D10*
G54D11*
X66929Y-15748D02*
X59055Y-15748D01*
X66929Y-35433D02*
X66929Y-15748D01*
X59055Y-35433D02*
X66929Y-35433D01*
X59055Y-15748D02*
X59055Y-35433D01*
G54D12*
X59980Y-30441D03*
G54D13*
X59980Y-29441D03*
G54D14*
X59961Y-25181D03*
X59961Y-27181D03*
X66024Y-28461D03*
X66024Y-26461D03*
G54D15*
X65866Y-21768D03*
G54D14*
X65866Y-24768D03*
G54D15*
X61555Y-21787D03*
G54D14*
X61555Y-24787D03*
X60158Y-23158D03*
X60158Y-21791D03*
X64449Y-23158D03*
X64449Y-21791D03*
X62953Y-23158D03*
X62953Y-21791D03*
G54D15*
X64512Y-26433D03*
G54D14*
X63512Y-26433D03*
X62512Y-26433D03*
X61512Y-26433D03*
X61512Y-29433D03*
X62512Y-29433D03*
X63512Y-29433D03*
X64512Y-29433D03*
G54D16*
X62539Y-19783D03*
X63523Y-19783D03*
X63523Y-18996D03*
X62539Y-18996D03*
G54D17*
X65401Y-17925D03*
X60661Y-17925D03*
G54D12*
X63992Y-32965D03*
G54D13*
X63992Y-33965D03*
X62992Y-32965D03*
X62992Y-33965D03*
X61992Y-32965D03*
X61992Y-33965D03*
M02*
