M48
;DRILL file {Pcbnew (2011-nov-30)-testing} date Tue 10 Apr 2012 11:35:07 PM PDT
;FORMAT={-:-/ absolute / inch / decimal}
FMAT,2
INCH,TZ
T1C0.032
T2C0.036
T3C0.040
T4C0.091
%
G90
G05
M72
T1
X5.996Y-2.518
X5.996Y-2.718
X6.016Y-2.179
X6.016Y-2.316
X6.151Y-2.643
X6.151Y-2.943
X6.155Y-2.179
X6.155Y-2.479
X6.251Y-2.643
X6.251Y-2.943
X6.295Y-2.179
X6.295Y-2.316
X6.351Y-2.643
X6.351Y-2.943
X6.445Y-2.179
X6.445Y-2.316
X6.451Y-2.643
X6.451Y-2.943
X6.587Y-2.177
X6.587Y-2.477
X6.602Y-2.646
X6.602Y-2.846
T2
X6.254Y-1.900
X6.254Y-1.978
X6.352Y-1.900
X6.352Y-1.978
T3
X5.998Y-2.944
X5.998Y-3.044
X6.199Y-3.296
X6.199Y-3.397
X6.299Y-3.296
X6.299Y-3.397
X6.399Y-3.296
X6.399Y-3.397
T4
X6.066Y-1.792
X6.540Y-1.792
T0
M30
