G04 (created by PCBNEW-RS274X (2011-nov-30)-testing) date Tue 10 Apr 2012 11:35:02 PM PDT*
G01*
G70*
G90*
%MOIN*%
G04 Gerber Fmt 3.4, Leading zero omitted, Abs format*
%FSLAX34Y34*%
G04 APERTURE LIST*
%ADD10C,0.006000*%
%ADD11C,0.009900*%
%ADD12C,0.015000*%
%ADD13R,0.060000X0.060000*%
%ADD14C,0.060000*%
%ADD15C,0.055000*%
%ADD16R,0.055000X0.055000*%
%ADD17C,0.055100*%
%ADD18C,0.129900*%
%ADD19C,0.008000*%
%ADD20C,0.011800*%
%ADD21C,0.010000*%
G04 APERTURE END LIST*
G54D10*
G54D11*
X66333Y-20496D02*
X66108Y-20627D01*
X66333Y-20721D02*
X65861Y-20721D01*
X65861Y-20571D01*
X65884Y-20534D01*
X65906Y-20515D01*
X65951Y-20496D01*
X66018Y-20496D01*
X66063Y-20515D01*
X66086Y-20534D01*
X66108Y-20571D01*
X66108Y-20721D01*
X66311Y-20177D02*
X66333Y-20215D01*
X66333Y-20290D01*
X66311Y-20327D01*
X66266Y-20346D01*
X66086Y-20346D01*
X66041Y-20327D01*
X66018Y-20290D01*
X66018Y-20215D01*
X66041Y-20177D01*
X66086Y-20158D01*
X66131Y-20158D01*
X66176Y-20346D01*
X66018Y-20027D02*
X66333Y-19933D01*
X66018Y-19839D01*
X66198Y-19408D02*
X66198Y-19220D01*
X66333Y-19445D02*
X65861Y-19314D01*
X66333Y-19183D01*
G54D12*
X66929Y-15748D02*
X59055Y-15748D01*
X66929Y-35433D02*
X66929Y-15748D01*
X59055Y-35433D02*
X66929Y-35433D01*
X59055Y-15748D02*
X59055Y-35433D01*
G54D13*
X59980Y-30441D03*
G54D14*
X59980Y-29441D03*
G54D15*
X59961Y-25181D03*
X59961Y-27181D03*
X66024Y-28461D03*
X66024Y-26461D03*
G54D16*
X65866Y-21768D03*
G54D15*
X65866Y-24768D03*
G54D16*
X61555Y-21787D03*
G54D15*
X61555Y-24787D03*
X60158Y-23158D03*
X60158Y-21791D03*
X64449Y-23158D03*
X64449Y-21791D03*
X62953Y-23158D03*
X62953Y-21791D03*
G54D16*
X64512Y-26433D03*
G54D15*
X63512Y-26433D03*
X62512Y-26433D03*
X61512Y-26433D03*
X61512Y-29433D03*
X62512Y-29433D03*
X63512Y-29433D03*
X64512Y-29433D03*
G54D17*
X62539Y-19783D03*
X63523Y-19783D03*
X63523Y-18996D03*
X62539Y-18996D03*
G54D18*
X65401Y-17925D03*
X60661Y-17925D03*
G54D13*
X63992Y-32965D03*
G54D14*
X63992Y-33965D03*
X62992Y-32965D03*
X62992Y-33965D03*
X61992Y-32965D03*
X61992Y-33965D03*
G54D19*
X64512Y-27023D02*
X64512Y-26433D01*
X64252Y-27283D02*
X64512Y-27023D01*
X61477Y-27283D02*
X64252Y-27283D01*
X60984Y-27776D02*
X61477Y-27283D01*
X60984Y-32322D02*
X60984Y-27776D01*
X61627Y-32965D02*
X60984Y-32322D01*
X61992Y-32965D02*
X61627Y-32965D01*
X62992Y-32965D02*
X62992Y-31122D01*
X63512Y-30602D02*
X63512Y-29433D01*
X62992Y-31122D02*
X63512Y-30602D01*
G54D20*
X60680Y-23158D02*
X60158Y-23158D01*
X60158Y-23158D02*
X60158Y-24114D01*
X62539Y-19783D02*
X61575Y-19783D01*
X60158Y-24114D02*
X59961Y-24311D01*
X59961Y-24311D02*
X59961Y-25181D01*
X60846Y-22992D02*
X60680Y-23158D01*
X60846Y-20512D02*
X60846Y-22992D01*
X61575Y-19783D02*
X60846Y-20512D01*
G54D10*
G36*
X66485Y-34989D02*
X66467Y-34989D01*
X66467Y-28418D01*
X66450Y-28333D01*
X66417Y-28252D01*
X66369Y-28180D01*
X66315Y-28125D01*
X66315Y-26823D01*
X66024Y-26532D01*
X65953Y-26603D01*
X65953Y-26461D01*
X65662Y-26170D01*
X65571Y-26193D01*
X65527Y-26286D01*
X65502Y-26386D01*
X65497Y-26489D01*
X65513Y-26590D01*
X65547Y-26687D01*
X65571Y-26729D01*
X65662Y-26752D01*
X65953Y-26461D01*
X65953Y-26603D01*
X65733Y-26823D01*
X65756Y-26914D01*
X65849Y-26958D01*
X65949Y-26983D01*
X66052Y-26988D01*
X66153Y-26972D01*
X66250Y-26938D01*
X66292Y-26914D01*
X66315Y-26823D01*
X66315Y-28125D01*
X66308Y-28118D01*
X66236Y-28070D01*
X66156Y-28036D01*
X66071Y-28018D01*
X65984Y-28018D01*
X65899Y-28034D01*
X65818Y-28066D01*
X65745Y-28114D01*
X65683Y-28175D01*
X65634Y-28246D01*
X65600Y-28326D01*
X65582Y-28411D01*
X65580Y-28498D01*
X65596Y-28583D01*
X65628Y-28664D01*
X65675Y-28737D01*
X65735Y-28800D01*
X65806Y-28849D01*
X65886Y-28884D01*
X65971Y-28903D01*
X66058Y-28905D01*
X66143Y-28890D01*
X66224Y-28858D01*
X66298Y-28812D01*
X66361Y-28752D01*
X66411Y-28681D01*
X66446Y-28602D01*
X66466Y-28517D01*
X66467Y-28418D01*
X66467Y-34989D01*
X64955Y-34989D01*
X64955Y-29390D01*
X64954Y-29385D01*
X64954Y-26726D01*
X64954Y-26693D01*
X64954Y-26142D01*
X64948Y-26110D01*
X64935Y-26080D01*
X64917Y-26052D01*
X64894Y-26029D01*
X64892Y-26027D01*
X64892Y-23115D01*
X64892Y-21748D01*
X64875Y-21663D01*
X64842Y-21582D01*
X64794Y-21510D01*
X64733Y-21448D01*
X64661Y-21400D01*
X64581Y-21366D01*
X64496Y-21348D01*
X64409Y-21348D01*
X64324Y-21364D01*
X64243Y-21396D01*
X64170Y-21444D01*
X64108Y-21505D01*
X64059Y-21576D01*
X64025Y-21656D01*
X64007Y-21741D01*
X64005Y-21828D01*
X64021Y-21913D01*
X64053Y-21994D01*
X64100Y-22067D01*
X64160Y-22130D01*
X64231Y-22179D01*
X64311Y-22214D01*
X64396Y-22233D01*
X64483Y-22235D01*
X64568Y-22220D01*
X64649Y-22188D01*
X64723Y-22142D01*
X64786Y-22082D01*
X64836Y-22011D01*
X64871Y-21932D01*
X64891Y-21847D01*
X64892Y-21748D01*
X64892Y-23115D01*
X64875Y-23030D01*
X64842Y-22949D01*
X64794Y-22877D01*
X64733Y-22815D01*
X64661Y-22767D01*
X64581Y-22733D01*
X64496Y-22715D01*
X64409Y-22715D01*
X64324Y-22731D01*
X64243Y-22763D01*
X64170Y-22811D01*
X64108Y-22872D01*
X64059Y-22943D01*
X64025Y-23023D01*
X64007Y-23108D01*
X64005Y-23195D01*
X64021Y-23280D01*
X64053Y-23361D01*
X64100Y-23434D01*
X64160Y-23497D01*
X64231Y-23546D01*
X64311Y-23581D01*
X64396Y-23600D01*
X64483Y-23602D01*
X64568Y-23587D01*
X64649Y-23555D01*
X64723Y-23509D01*
X64786Y-23449D01*
X64836Y-23378D01*
X64871Y-23299D01*
X64891Y-23214D01*
X64892Y-23115D01*
X64892Y-26027D01*
X64867Y-26011D01*
X64837Y-25998D01*
X64805Y-25991D01*
X64772Y-25991D01*
X64221Y-25991D01*
X64189Y-25997D01*
X64159Y-26010D01*
X64131Y-26028D01*
X64108Y-26051D01*
X64090Y-26078D01*
X64077Y-26108D01*
X64070Y-26140D01*
X64070Y-26173D01*
X64070Y-26724D01*
X64076Y-26756D01*
X64089Y-26786D01*
X64107Y-26814D01*
X64130Y-26837D01*
X64157Y-26855D01*
X64187Y-26868D01*
X64219Y-26875D01*
X64252Y-26875D01*
X64304Y-26875D01*
X64304Y-26936D01*
X64165Y-27075D01*
X63966Y-27075D01*
X63966Y-19740D01*
X63949Y-19655D01*
X63916Y-19574D01*
X63868Y-19502D01*
X63807Y-19440D01*
X63735Y-19392D01*
X63728Y-19389D01*
X63797Y-19347D01*
X63860Y-19287D01*
X63910Y-19216D01*
X63945Y-19137D01*
X63965Y-19052D01*
X63966Y-18953D01*
X63949Y-18868D01*
X63916Y-18787D01*
X63868Y-18715D01*
X63807Y-18653D01*
X63735Y-18605D01*
X63655Y-18571D01*
X63570Y-18553D01*
X63483Y-18553D01*
X63398Y-18569D01*
X63317Y-18601D01*
X63244Y-18649D01*
X63182Y-18710D01*
X63133Y-18781D01*
X63099Y-18861D01*
X63081Y-18946D01*
X63079Y-19033D01*
X63095Y-19118D01*
X63127Y-19199D01*
X63174Y-19272D01*
X63234Y-19335D01*
X63305Y-19384D01*
X63315Y-19388D01*
X63244Y-19436D01*
X63182Y-19497D01*
X63133Y-19568D01*
X63099Y-19648D01*
X63081Y-19733D01*
X63079Y-19820D01*
X63095Y-19905D01*
X63127Y-19986D01*
X63174Y-20059D01*
X63234Y-20122D01*
X63305Y-20171D01*
X63385Y-20206D01*
X63470Y-20225D01*
X63557Y-20227D01*
X63642Y-20212D01*
X63723Y-20180D01*
X63797Y-20134D01*
X63860Y-20074D01*
X63910Y-20003D01*
X63945Y-19924D01*
X63965Y-19839D01*
X63966Y-19740D01*
X63966Y-27075D01*
X63955Y-27075D01*
X63955Y-26390D01*
X63938Y-26305D01*
X63905Y-26224D01*
X63857Y-26152D01*
X63796Y-26090D01*
X63724Y-26042D01*
X63644Y-26008D01*
X63559Y-25990D01*
X63472Y-25990D01*
X63396Y-26004D01*
X63396Y-23115D01*
X63396Y-21748D01*
X63379Y-21663D01*
X63346Y-21582D01*
X63298Y-21510D01*
X63237Y-21448D01*
X63165Y-21400D01*
X63085Y-21366D01*
X63066Y-21361D01*
X63066Y-18968D01*
X63050Y-18867D01*
X63016Y-18770D01*
X62992Y-18728D01*
X62901Y-18705D01*
X62830Y-18776D01*
X62830Y-18634D01*
X62807Y-18543D01*
X62714Y-18499D01*
X62614Y-18474D01*
X62511Y-18469D01*
X62410Y-18485D01*
X62313Y-18519D01*
X62271Y-18543D01*
X62248Y-18634D01*
X62539Y-18925D01*
X62830Y-18634D01*
X62830Y-18776D01*
X62610Y-18996D01*
X62901Y-19287D01*
X62992Y-19264D01*
X63036Y-19171D01*
X63061Y-19071D01*
X63066Y-18968D01*
X63066Y-21361D01*
X63000Y-21348D01*
X62982Y-21348D01*
X62982Y-19740D01*
X62965Y-19655D01*
X62932Y-19574D01*
X62884Y-19502D01*
X62823Y-19440D01*
X62811Y-19432D01*
X62830Y-19358D01*
X62539Y-19067D01*
X62468Y-19138D01*
X62468Y-18996D01*
X62177Y-18705D01*
X62086Y-18728D01*
X62042Y-18821D01*
X62017Y-18921D01*
X62012Y-19024D01*
X62028Y-19125D01*
X62062Y-19222D01*
X62086Y-19264D01*
X62177Y-19287D01*
X62468Y-18996D01*
X62468Y-19138D01*
X62248Y-19358D01*
X62266Y-19431D01*
X62260Y-19436D01*
X62198Y-19497D01*
X62157Y-19556D01*
X61575Y-19556D01*
X61563Y-19557D01*
X61563Y-17912D01*
X61543Y-17737D01*
X61490Y-17569D01*
X61419Y-17436D01*
X61290Y-17367D01*
X61219Y-17438D01*
X61219Y-17296D01*
X61150Y-17167D01*
X60993Y-17086D01*
X60824Y-17038D01*
X60648Y-17023D01*
X60473Y-17043D01*
X60305Y-17096D01*
X60172Y-17167D01*
X60103Y-17296D01*
X60661Y-17854D01*
X61219Y-17296D01*
X61219Y-17438D01*
X60732Y-17925D01*
X61290Y-18483D01*
X61419Y-18414D01*
X61500Y-18257D01*
X61548Y-18088D01*
X61563Y-17912D01*
X61563Y-19557D01*
X61531Y-19560D01*
X61488Y-19573D01*
X61449Y-19594D01*
X61423Y-19615D01*
X61416Y-19621D01*
X61415Y-19622D01*
X61414Y-19623D01*
X61219Y-19817D01*
X61219Y-18554D01*
X60661Y-17996D01*
X60590Y-18067D01*
X60590Y-17925D01*
X60032Y-17367D01*
X59903Y-17436D01*
X59822Y-17593D01*
X59774Y-17762D01*
X59759Y-17938D01*
X59779Y-18113D01*
X59832Y-18281D01*
X59903Y-18414D01*
X60032Y-18483D01*
X60590Y-17925D01*
X60590Y-18067D01*
X60103Y-18554D01*
X60172Y-18683D01*
X60329Y-18764D01*
X60498Y-18812D01*
X60674Y-18827D01*
X60849Y-18807D01*
X61017Y-18754D01*
X61150Y-18683D01*
X61219Y-18554D01*
X61219Y-19817D01*
X60685Y-20351D01*
X60657Y-20385D01*
X60637Y-20421D01*
X60637Y-20423D01*
X60636Y-20423D01*
X60636Y-20425D01*
X60623Y-20467D01*
X60619Y-20501D01*
X60619Y-20509D01*
X60619Y-20511D01*
X60619Y-20512D01*
X60619Y-22897D01*
X60601Y-22915D01*
X60601Y-21748D01*
X60584Y-21663D01*
X60551Y-21582D01*
X60503Y-21510D01*
X60442Y-21448D01*
X60370Y-21400D01*
X60290Y-21366D01*
X60205Y-21348D01*
X60118Y-21348D01*
X60033Y-21364D01*
X59952Y-21396D01*
X59879Y-21444D01*
X59817Y-21505D01*
X59768Y-21576D01*
X59734Y-21656D01*
X59716Y-21741D01*
X59714Y-21828D01*
X59730Y-21913D01*
X59762Y-21994D01*
X59809Y-22067D01*
X59869Y-22130D01*
X59940Y-22179D01*
X60020Y-22214D01*
X60105Y-22233D01*
X60192Y-22235D01*
X60277Y-22220D01*
X60358Y-22188D01*
X60432Y-22142D01*
X60495Y-22082D01*
X60545Y-22011D01*
X60580Y-21932D01*
X60600Y-21847D01*
X60601Y-21748D01*
X60601Y-22915D01*
X60585Y-22931D01*
X60539Y-22931D01*
X60503Y-22877D01*
X60442Y-22815D01*
X60370Y-22767D01*
X60290Y-22733D01*
X60205Y-22715D01*
X60118Y-22715D01*
X60033Y-22731D01*
X59952Y-22763D01*
X59879Y-22811D01*
X59817Y-22872D01*
X59768Y-22943D01*
X59734Y-23023D01*
X59716Y-23108D01*
X59714Y-23195D01*
X59730Y-23280D01*
X59762Y-23361D01*
X59809Y-23434D01*
X59869Y-23497D01*
X59931Y-23539D01*
X59931Y-24019D01*
X59800Y-24150D01*
X59772Y-24184D01*
X59752Y-24220D01*
X59752Y-24222D01*
X59751Y-24222D01*
X59751Y-24224D01*
X59738Y-24266D01*
X59734Y-24300D01*
X59734Y-24308D01*
X59734Y-24310D01*
X59734Y-24311D01*
X59734Y-24799D01*
X59682Y-24834D01*
X59620Y-24895D01*
X59571Y-24966D01*
X59537Y-25046D01*
X59519Y-25131D01*
X59517Y-25218D01*
X59533Y-25303D01*
X59565Y-25384D01*
X59612Y-25457D01*
X59672Y-25520D01*
X59743Y-25569D01*
X59823Y-25604D01*
X59908Y-25623D01*
X59995Y-25625D01*
X60080Y-25610D01*
X60161Y-25578D01*
X60235Y-25532D01*
X60298Y-25472D01*
X60348Y-25401D01*
X60383Y-25322D01*
X60403Y-25237D01*
X60404Y-25138D01*
X60387Y-25053D01*
X60354Y-24972D01*
X60306Y-24900D01*
X60245Y-24838D01*
X60188Y-24800D01*
X60188Y-24405D01*
X60317Y-24276D01*
X60318Y-24275D01*
X60345Y-24242D01*
X60346Y-24241D01*
X60363Y-24210D01*
X60367Y-24203D01*
X60367Y-24202D01*
X60368Y-24201D01*
X60372Y-24185D01*
X60380Y-24161D01*
X60380Y-24159D01*
X60385Y-24117D01*
X60385Y-24115D01*
X60385Y-24114D01*
X60385Y-23538D01*
X60432Y-23509D01*
X60495Y-23449D01*
X60540Y-23385D01*
X60678Y-23385D01*
X60680Y-23385D01*
X60722Y-23381D01*
X60724Y-23381D01*
X60748Y-23373D01*
X60765Y-23369D01*
X60766Y-23368D01*
X60767Y-23368D01*
X60804Y-23348D01*
X60806Y-23347D01*
X60826Y-23330D01*
X60838Y-23321D01*
X60840Y-23319D01*
X60841Y-23319D01*
X61005Y-23154D01*
X61006Y-23153D01*
X61033Y-23120D01*
X61034Y-23119D01*
X61043Y-23102D01*
X61055Y-23081D01*
X61055Y-23080D01*
X61068Y-23039D01*
X61068Y-23037D01*
X61073Y-22995D01*
X61073Y-22992D01*
X61073Y-20606D01*
X61669Y-20010D01*
X62158Y-20010D01*
X62190Y-20059D01*
X62250Y-20122D01*
X62321Y-20171D01*
X62401Y-20206D01*
X62486Y-20225D01*
X62573Y-20227D01*
X62658Y-20212D01*
X62739Y-20180D01*
X62813Y-20134D01*
X62876Y-20074D01*
X62926Y-20003D01*
X62961Y-19924D01*
X62981Y-19839D01*
X62982Y-19740D01*
X62982Y-21348D01*
X62913Y-21348D01*
X62828Y-21364D01*
X62747Y-21396D01*
X62674Y-21444D01*
X62612Y-21505D01*
X62563Y-21576D01*
X62529Y-21656D01*
X62511Y-21741D01*
X62509Y-21828D01*
X62525Y-21913D01*
X62557Y-21994D01*
X62604Y-22067D01*
X62664Y-22130D01*
X62735Y-22179D01*
X62815Y-22214D01*
X62900Y-22233D01*
X62987Y-22235D01*
X63072Y-22220D01*
X63153Y-22188D01*
X63227Y-22142D01*
X63290Y-22082D01*
X63340Y-22011D01*
X63375Y-21932D01*
X63395Y-21847D01*
X63396Y-21748D01*
X63396Y-23115D01*
X63379Y-23030D01*
X63346Y-22949D01*
X63298Y-22877D01*
X63237Y-22815D01*
X63165Y-22767D01*
X63085Y-22733D01*
X63000Y-22715D01*
X62913Y-22715D01*
X62828Y-22731D01*
X62747Y-22763D01*
X62674Y-22811D01*
X62612Y-22872D01*
X62563Y-22943D01*
X62529Y-23023D01*
X62511Y-23108D01*
X62509Y-23195D01*
X62525Y-23280D01*
X62557Y-23361D01*
X62604Y-23434D01*
X62664Y-23497D01*
X62735Y-23546D01*
X62815Y-23581D01*
X62900Y-23600D01*
X62987Y-23602D01*
X63072Y-23587D01*
X63153Y-23555D01*
X63227Y-23509D01*
X63290Y-23449D01*
X63340Y-23378D01*
X63375Y-23299D01*
X63395Y-23214D01*
X63396Y-23115D01*
X63396Y-26004D01*
X63387Y-26006D01*
X63306Y-26038D01*
X63233Y-26086D01*
X63171Y-26147D01*
X63122Y-26218D01*
X63088Y-26298D01*
X63070Y-26383D01*
X63068Y-26470D01*
X63084Y-26555D01*
X63116Y-26636D01*
X63163Y-26709D01*
X63223Y-26772D01*
X63294Y-26821D01*
X63374Y-26856D01*
X63459Y-26875D01*
X63546Y-26877D01*
X63631Y-26862D01*
X63712Y-26830D01*
X63786Y-26784D01*
X63849Y-26724D01*
X63899Y-26653D01*
X63934Y-26574D01*
X63954Y-26489D01*
X63955Y-26390D01*
X63955Y-27075D01*
X62955Y-27075D01*
X62955Y-26390D01*
X62938Y-26305D01*
X62905Y-26224D01*
X62857Y-26152D01*
X62796Y-26090D01*
X62724Y-26042D01*
X62644Y-26008D01*
X62559Y-25990D01*
X62472Y-25990D01*
X62387Y-26006D01*
X62306Y-26038D01*
X62233Y-26086D01*
X62171Y-26147D01*
X62122Y-26218D01*
X62088Y-26298D01*
X62082Y-26326D01*
X62082Y-24759D01*
X62066Y-24658D01*
X62032Y-24561D01*
X62008Y-24519D01*
X61997Y-24516D01*
X61997Y-22080D01*
X61997Y-22047D01*
X61997Y-21496D01*
X61991Y-21464D01*
X61978Y-21434D01*
X61960Y-21406D01*
X61937Y-21383D01*
X61910Y-21365D01*
X61880Y-21352D01*
X61848Y-21345D01*
X61815Y-21345D01*
X61264Y-21345D01*
X61232Y-21351D01*
X61202Y-21364D01*
X61174Y-21382D01*
X61151Y-21405D01*
X61133Y-21432D01*
X61120Y-21462D01*
X61113Y-21494D01*
X61113Y-21527D01*
X61113Y-22078D01*
X61119Y-22110D01*
X61132Y-22140D01*
X61150Y-22168D01*
X61173Y-22191D01*
X61200Y-22209D01*
X61230Y-22222D01*
X61262Y-22229D01*
X61295Y-22229D01*
X61846Y-22229D01*
X61878Y-22223D01*
X61908Y-22210D01*
X61936Y-22192D01*
X61959Y-22169D01*
X61977Y-22142D01*
X61990Y-22112D01*
X61997Y-22080D01*
X61997Y-24516D01*
X61917Y-24496D01*
X61846Y-24567D01*
X61846Y-24425D01*
X61823Y-24334D01*
X61730Y-24290D01*
X61630Y-24265D01*
X61527Y-24260D01*
X61426Y-24276D01*
X61329Y-24310D01*
X61287Y-24334D01*
X61264Y-24425D01*
X61555Y-24716D01*
X61846Y-24425D01*
X61846Y-24567D01*
X61626Y-24787D01*
X61917Y-25078D01*
X62008Y-25055D01*
X62052Y-24962D01*
X62077Y-24862D01*
X62082Y-24759D01*
X62082Y-26326D01*
X62070Y-26383D01*
X62068Y-26470D01*
X62084Y-26555D01*
X62116Y-26636D01*
X62163Y-26709D01*
X62223Y-26772D01*
X62294Y-26821D01*
X62374Y-26856D01*
X62459Y-26875D01*
X62546Y-26877D01*
X62631Y-26862D01*
X62712Y-26830D01*
X62786Y-26784D01*
X62849Y-26724D01*
X62899Y-26653D01*
X62934Y-26574D01*
X62954Y-26489D01*
X62955Y-26390D01*
X62955Y-27075D01*
X62039Y-27075D01*
X62039Y-26405D01*
X62023Y-26304D01*
X61989Y-26207D01*
X61965Y-26165D01*
X61874Y-26142D01*
X61846Y-26170D01*
X61846Y-25149D01*
X61555Y-24858D01*
X61484Y-24929D01*
X61484Y-24787D01*
X61193Y-24496D01*
X61102Y-24519D01*
X61058Y-24612D01*
X61033Y-24712D01*
X61028Y-24815D01*
X61044Y-24916D01*
X61078Y-25013D01*
X61102Y-25055D01*
X61193Y-25078D01*
X61484Y-24787D01*
X61484Y-24929D01*
X61264Y-25149D01*
X61287Y-25240D01*
X61380Y-25284D01*
X61480Y-25309D01*
X61583Y-25314D01*
X61684Y-25298D01*
X61781Y-25264D01*
X61823Y-25240D01*
X61846Y-25149D01*
X61846Y-26170D01*
X61803Y-26213D01*
X61803Y-26071D01*
X61780Y-25980D01*
X61687Y-25936D01*
X61587Y-25911D01*
X61484Y-25906D01*
X61383Y-25922D01*
X61286Y-25956D01*
X61244Y-25980D01*
X61221Y-26071D01*
X61512Y-26362D01*
X61803Y-26071D01*
X61803Y-26213D01*
X61583Y-26433D01*
X61874Y-26724D01*
X61965Y-26701D01*
X62009Y-26608D01*
X62034Y-26508D01*
X62039Y-26405D01*
X62039Y-27075D01*
X61803Y-27075D01*
X61803Y-26795D01*
X61512Y-26504D01*
X61441Y-26575D01*
X61441Y-26433D01*
X61150Y-26142D01*
X61059Y-26165D01*
X61015Y-26258D01*
X60990Y-26358D01*
X60985Y-26461D01*
X61001Y-26562D01*
X61035Y-26659D01*
X61059Y-26701D01*
X61150Y-26724D01*
X61441Y-26433D01*
X61441Y-26575D01*
X61221Y-26795D01*
X61244Y-26886D01*
X61337Y-26930D01*
X61437Y-26955D01*
X61540Y-26960D01*
X61641Y-26944D01*
X61738Y-26910D01*
X61780Y-26886D01*
X61803Y-26795D01*
X61803Y-27075D01*
X61479Y-27075D01*
X61477Y-27075D01*
X61471Y-27075D01*
X61439Y-27078D01*
X61400Y-27090D01*
X61398Y-27090D01*
X61398Y-27091D01*
X61362Y-27110D01*
X61330Y-27135D01*
X61326Y-27139D01*
X60842Y-27623D01*
X60838Y-27627D01*
X60812Y-27658D01*
X60793Y-27694D01*
X60792Y-27694D01*
X60792Y-27696D01*
X60780Y-27735D01*
X60775Y-27775D01*
X60776Y-27783D01*
X60776Y-32312D01*
X60775Y-32320D01*
X60779Y-32360D01*
X60791Y-32399D01*
X60791Y-32400D01*
X60792Y-32401D01*
X60810Y-32435D01*
X60811Y-32437D01*
X60835Y-32467D01*
X60836Y-32469D01*
X60837Y-32469D01*
X60840Y-32472D01*
X61474Y-33106D01*
X61478Y-33111D01*
X61480Y-33112D01*
X61509Y-33137D01*
X61545Y-33156D01*
X61547Y-33156D01*
X61566Y-33162D01*
X61567Y-33162D01*
X61574Y-33180D01*
X61624Y-33257D01*
X61687Y-33323D01*
X61763Y-33376D01*
X61847Y-33412D01*
X61900Y-33423D01*
X61860Y-33430D01*
X61759Y-33466D01*
X61710Y-33492D01*
X61683Y-33585D01*
X61992Y-33894D01*
X62301Y-33585D01*
X62274Y-33492D01*
X62177Y-33446D01*
X62087Y-33423D01*
X62119Y-33418D01*
X62204Y-33385D01*
X62282Y-33335D01*
X62348Y-33272D01*
X62401Y-33197D01*
X62438Y-33113D01*
X62459Y-33024D01*
X62460Y-32919D01*
X62442Y-32829D01*
X62407Y-32744D01*
X62356Y-32668D01*
X62292Y-32603D01*
X62216Y-32551D01*
X62131Y-32516D01*
X62041Y-32497D01*
X61949Y-32497D01*
X61859Y-32514D01*
X61774Y-32548D01*
X61697Y-32599D01*
X61632Y-32663D01*
X61626Y-32670D01*
X61192Y-32236D01*
X61192Y-29739D01*
X61223Y-29772D01*
X61294Y-29821D01*
X61374Y-29856D01*
X61459Y-29875D01*
X61546Y-29877D01*
X61631Y-29862D01*
X61712Y-29830D01*
X61786Y-29784D01*
X61849Y-29724D01*
X61899Y-29653D01*
X61934Y-29574D01*
X61954Y-29489D01*
X61955Y-29390D01*
X61938Y-29305D01*
X61905Y-29224D01*
X61857Y-29152D01*
X61796Y-29090D01*
X61724Y-29042D01*
X61644Y-29008D01*
X61559Y-28990D01*
X61472Y-28990D01*
X61387Y-29006D01*
X61306Y-29038D01*
X61233Y-29086D01*
X61192Y-29126D01*
X61192Y-27862D01*
X61563Y-27491D01*
X64242Y-27491D01*
X64250Y-27492D01*
X64252Y-27491D01*
X64290Y-27488D01*
X64292Y-27487D01*
X64329Y-27476D01*
X64330Y-27475D01*
X64331Y-27475D01*
X64365Y-27457D01*
X64367Y-27456D01*
X64397Y-27432D01*
X64399Y-27431D01*
X64399Y-27430D01*
X64402Y-27426D01*
X64657Y-27172D01*
X64658Y-27172D01*
X64658Y-27171D01*
X64659Y-27171D01*
X64661Y-27168D01*
X64684Y-27141D01*
X64684Y-27139D01*
X64703Y-27105D01*
X64703Y-27103D01*
X64715Y-27066D01*
X64715Y-27065D01*
X64720Y-27026D01*
X64720Y-27024D01*
X64720Y-27023D01*
X64720Y-26875D01*
X64803Y-26875D01*
X64835Y-26869D01*
X64865Y-26856D01*
X64893Y-26838D01*
X64916Y-26815D01*
X64934Y-26788D01*
X64947Y-26758D01*
X64954Y-26726D01*
X64954Y-29385D01*
X64938Y-29305D01*
X64905Y-29224D01*
X64857Y-29152D01*
X64796Y-29090D01*
X64724Y-29042D01*
X64644Y-29008D01*
X64559Y-28990D01*
X64472Y-28990D01*
X64387Y-29006D01*
X64306Y-29038D01*
X64233Y-29086D01*
X64171Y-29147D01*
X64122Y-29218D01*
X64088Y-29298D01*
X64070Y-29383D01*
X64068Y-29470D01*
X64084Y-29555D01*
X64116Y-29636D01*
X64163Y-29709D01*
X64223Y-29772D01*
X64294Y-29821D01*
X64374Y-29856D01*
X64459Y-29875D01*
X64546Y-29877D01*
X64631Y-29862D01*
X64712Y-29830D01*
X64786Y-29784D01*
X64849Y-29724D01*
X64899Y-29653D01*
X64934Y-29574D01*
X64954Y-29489D01*
X64955Y-29390D01*
X64955Y-34989D01*
X64460Y-34989D01*
X64460Y-33919D01*
X64459Y-33914D01*
X64459Y-33283D01*
X64459Y-33250D01*
X64459Y-32649D01*
X64453Y-32617D01*
X64440Y-32587D01*
X64422Y-32559D01*
X64399Y-32536D01*
X64372Y-32518D01*
X64342Y-32505D01*
X64310Y-32498D01*
X64277Y-32498D01*
X63955Y-32498D01*
X63955Y-29390D01*
X63938Y-29305D01*
X63905Y-29224D01*
X63857Y-29152D01*
X63796Y-29090D01*
X63724Y-29042D01*
X63644Y-29008D01*
X63559Y-28990D01*
X63472Y-28990D01*
X63387Y-29006D01*
X63306Y-29038D01*
X63233Y-29086D01*
X63171Y-29147D01*
X63122Y-29218D01*
X63088Y-29298D01*
X63070Y-29383D01*
X63068Y-29470D01*
X63084Y-29555D01*
X63116Y-29636D01*
X63163Y-29709D01*
X63223Y-29772D01*
X63294Y-29821D01*
X63304Y-29825D01*
X63304Y-30516D01*
X62955Y-30864D01*
X62955Y-29390D01*
X62938Y-29305D01*
X62905Y-29224D01*
X62857Y-29152D01*
X62796Y-29090D01*
X62724Y-29042D01*
X62644Y-29008D01*
X62559Y-28990D01*
X62472Y-28990D01*
X62387Y-29006D01*
X62306Y-29038D01*
X62233Y-29086D01*
X62171Y-29147D01*
X62122Y-29218D01*
X62088Y-29298D01*
X62070Y-29383D01*
X62068Y-29470D01*
X62084Y-29555D01*
X62116Y-29636D01*
X62163Y-29709D01*
X62223Y-29772D01*
X62294Y-29821D01*
X62374Y-29856D01*
X62459Y-29875D01*
X62546Y-29877D01*
X62631Y-29862D01*
X62712Y-29830D01*
X62786Y-29784D01*
X62849Y-29724D01*
X62899Y-29653D01*
X62934Y-29574D01*
X62954Y-29489D01*
X62955Y-29390D01*
X62955Y-30864D01*
X62850Y-30969D01*
X62846Y-30973D01*
X62820Y-31004D01*
X62801Y-31040D01*
X62800Y-31040D01*
X62800Y-31042D01*
X62788Y-31081D01*
X62783Y-31121D01*
X62784Y-31129D01*
X62784Y-32544D01*
X62774Y-32548D01*
X62697Y-32599D01*
X62632Y-32663D01*
X62580Y-32739D01*
X62544Y-32823D01*
X62525Y-32913D01*
X62523Y-33004D01*
X62540Y-33095D01*
X62574Y-33180D01*
X62624Y-33257D01*
X62687Y-33323D01*
X62763Y-33376D01*
X62847Y-33412D01*
X62936Y-33432D01*
X63028Y-33434D01*
X63119Y-33418D01*
X63204Y-33385D01*
X63282Y-33335D01*
X63348Y-33272D01*
X63401Y-33197D01*
X63438Y-33113D01*
X63459Y-33024D01*
X63460Y-32919D01*
X63442Y-32829D01*
X63407Y-32744D01*
X63356Y-32668D01*
X63292Y-32603D01*
X63216Y-32551D01*
X63200Y-32544D01*
X63200Y-31208D01*
X63653Y-30754D01*
X63658Y-30751D01*
X63659Y-30749D01*
X63684Y-30720D01*
X63684Y-30718D01*
X63703Y-30684D01*
X63703Y-30682D01*
X63715Y-30645D01*
X63715Y-30643D01*
X63720Y-30605D01*
X63720Y-30603D01*
X63720Y-30602D01*
X63720Y-29825D01*
X63786Y-29784D01*
X63849Y-29724D01*
X63899Y-29653D01*
X63934Y-29574D01*
X63954Y-29489D01*
X63955Y-29390D01*
X63955Y-32498D01*
X63676Y-32498D01*
X63644Y-32504D01*
X63614Y-32517D01*
X63586Y-32535D01*
X63563Y-32558D01*
X63545Y-32585D01*
X63532Y-32615D01*
X63525Y-32647D01*
X63525Y-32680D01*
X63525Y-33281D01*
X63531Y-33313D01*
X63544Y-33343D01*
X63562Y-33371D01*
X63585Y-33394D01*
X63612Y-33412D01*
X63642Y-33425D01*
X63674Y-33432D01*
X63707Y-33432D01*
X64308Y-33432D01*
X64340Y-33426D01*
X64370Y-33413D01*
X64398Y-33395D01*
X64421Y-33372D01*
X64439Y-33345D01*
X64452Y-33315D01*
X64459Y-33283D01*
X64459Y-33914D01*
X64442Y-33829D01*
X64407Y-33744D01*
X64356Y-33668D01*
X64292Y-33603D01*
X64216Y-33551D01*
X64131Y-33516D01*
X64041Y-33497D01*
X63949Y-33497D01*
X63859Y-33514D01*
X63774Y-33548D01*
X63697Y-33599D01*
X63632Y-33663D01*
X63580Y-33739D01*
X63544Y-33823D01*
X63525Y-33913D01*
X63523Y-34004D01*
X63540Y-34095D01*
X63574Y-34180D01*
X63624Y-34257D01*
X63687Y-34323D01*
X63763Y-34376D01*
X63847Y-34412D01*
X63936Y-34432D01*
X64028Y-34434D01*
X64119Y-34418D01*
X64204Y-34385D01*
X64282Y-34335D01*
X64348Y-34272D01*
X64401Y-34197D01*
X64438Y-34113D01*
X64459Y-34024D01*
X64460Y-33919D01*
X64460Y-34989D01*
X63460Y-34989D01*
X63460Y-33919D01*
X63442Y-33829D01*
X63407Y-33744D01*
X63356Y-33668D01*
X63292Y-33603D01*
X63216Y-33551D01*
X63131Y-33516D01*
X63041Y-33497D01*
X62949Y-33497D01*
X62859Y-33514D01*
X62774Y-33548D01*
X62697Y-33599D01*
X62632Y-33663D01*
X62580Y-33739D01*
X62544Y-33823D01*
X62533Y-33874D01*
X62527Y-33833D01*
X62491Y-33732D01*
X62465Y-33683D01*
X62372Y-33656D01*
X62063Y-33965D01*
X62372Y-34274D01*
X62465Y-34247D01*
X62511Y-34150D01*
X62533Y-34060D01*
X62540Y-34095D01*
X62574Y-34180D01*
X62624Y-34257D01*
X62687Y-34323D01*
X62763Y-34376D01*
X62847Y-34412D01*
X62936Y-34432D01*
X63028Y-34434D01*
X63119Y-34418D01*
X63204Y-34385D01*
X63282Y-34335D01*
X63348Y-34272D01*
X63401Y-34197D01*
X63438Y-34113D01*
X63459Y-34024D01*
X63460Y-33919D01*
X63460Y-34989D01*
X62301Y-34989D01*
X62301Y-34345D01*
X61992Y-34036D01*
X61921Y-34107D01*
X61921Y-33965D01*
X61612Y-33656D01*
X61519Y-33683D01*
X61473Y-33780D01*
X61447Y-33884D01*
X61441Y-33991D01*
X61457Y-34097D01*
X61493Y-34198D01*
X61519Y-34247D01*
X61612Y-34274D01*
X61921Y-33965D01*
X61921Y-34107D01*
X61683Y-34345D01*
X61710Y-34438D01*
X61807Y-34484D01*
X61911Y-34510D01*
X62018Y-34516D01*
X62124Y-34500D01*
X62225Y-34464D01*
X62274Y-34438D01*
X62301Y-34345D01*
X62301Y-34989D01*
X60488Y-34989D01*
X60488Y-27153D01*
X60472Y-27052D01*
X60438Y-26955D01*
X60414Y-26913D01*
X60323Y-26890D01*
X60252Y-26961D01*
X60252Y-26819D01*
X60229Y-26728D01*
X60136Y-26684D01*
X60036Y-26659D01*
X59933Y-26654D01*
X59832Y-26670D01*
X59735Y-26704D01*
X59693Y-26728D01*
X59670Y-26819D01*
X59961Y-27110D01*
X60252Y-26819D01*
X60252Y-26961D01*
X60032Y-27181D01*
X60323Y-27472D01*
X60414Y-27449D01*
X60458Y-27356D01*
X60483Y-27256D01*
X60488Y-27153D01*
X60488Y-34989D01*
X60448Y-34989D01*
X60448Y-29395D01*
X60430Y-29305D01*
X60395Y-29220D01*
X60344Y-29144D01*
X60280Y-29079D01*
X60252Y-29059D01*
X60252Y-27543D01*
X59961Y-27252D01*
X59670Y-27543D01*
X59693Y-27634D01*
X59786Y-27678D01*
X59886Y-27703D01*
X59989Y-27708D01*
X60090Y-27692D01*
X60187Y-27658D01*
X60229Y-27634D01*
X60252Y-27543D01*
X60252Y-29059D01*
X60204Y-29027D01*
X60119Y-28992D01*
X60029Y-28973D01*
X59937Y-28973D01*
X59847Y-28990D01*
X59762Y-29024D01*
X59685Y-29075D01*
X59620Y-29139D01*
X59568Y-29215D01*
X59532Y-29299D01*
X59513Y-29389D01*
X59511Y-29480D01*
X59528Y-29571D01*
X59562Y-29656D01*
X59612Y-29733D01*
X59675Y-29799D01*
X59751Y-29852D01*
X59835Y-29888D01*
X59924Y-29908D01*
X60016Y-29910D01*
X60107Y-29894D01*
X60192Y-29861D01*
X60270Y-29811D01*
X60336Y-29748D01*
X60389Y-29673D01*
X60426Y-29589D01*
X60447Y-29500D01*
X60448Y-29395D01*
X60448Y-34989D01*
X60447Y-34989D01*
X60447Y-30759D01*
X60447Y-30726D01*
X60447Y-30125D01*
X60441Y-30093D01*
X60428Y-30063D01*
X60410Y-30035D01*
X60387Y-30012D01*
X60360Y-29994D01*
X60330Y-29981D01*
X60298Y-29974D01*
X60265Y-29974D01*
X59664Y-29974D01*
X59632Y-29980D01*
X59602Y-29993D01*
X59574Y-30011D01*
X59551Y-30034D01*
X59533Y-30061D01*
X59520Y-30091D01*
X59513Y-30123D01*
X59513Y-30156D01*
X59513Y-30757D01*
X59519Y-30789D01*
X59532Y-30819D01*
X59550Y-30847D01*
X59573Y-30870D01*
X59600Y-30888D01*
X59630Y-30901D01*
X59662Y-30908D01*
X59695Y-30908D01*
X60296Y-30908D01*
X60328Y-30902D01*
X60358Y-30889D01*
X60386Y-30871D01*
X60409Y-30848D01*
X60427Y-30821D01*
X60440Y-30791D01*
X60447Y-30759D01*
X60447Y-34989D01*
X59499Y-34989D01*
X59499Y-27433D01*
X59508Y-27449D01*
X59599Y-27472D01*
X59890Y-27181D01*
X59599Y-26890D01*
X59508Y-26913D01*
X59499Y-26932D01*
X59499Y-16192D01*
X66485Y-16192D01*
X66485Y-18928D01*
X66303Y-18928D01*
X66303Y-17912D01*
X66283Y-17737D01*
X66230Y-17569D01*
X66159Y-17436D01*
X66030Y-17367D01*
X65959Y-17438D01*
X65959Y-17296D01*
X65890Y-17167D01*
X65733Y-17086D01*
X65564Y-17038D01*
X65388Y-17023D01*
X65213Y-17043D01*
X65045Y-17096D01*
X64912Y-17167D01*
X64843Y-17296D01*
X65401Y-17854D01*
X65959Y-17296D01*
X65959Y-17438D01*
X65472Y-17925D01*
X66030Y-18483D01*
X66159Y-18414D01*
X66240Y-18257D01*
X66288Y-18088D01*
X66303Y-17912D01*
X66303Y-18928D01*
X65959Y-18928D01*
X65959Y-18554D01*
X65401Y-17996D01*
X65330Y-18067D01*
X65330Y-17925D01*
X64772Y-17367D01*
X64643Y-17436D01*
X64562Y-17593D01*
X64514Y-17762D01*
X64499Y-17938D01*
X64519Y-18113D01*
X64572Y-18281D01*
X64643Y-18414D01*
X64772Y-18483D01*
X65330Y-17925D01*
X65330Y-18067D01*
X64843Y-18554D01*
X64912Y-18683D01*
X65069Y-18764D01*
X65238Y-18812D01*
X65414Y-18827D01*
X65589Y-18807D01*
X65757Y-18754D01*
X65890Y-18683D01*
X65959Y-18554D01*
X65959Y-18928D01*
X65497Y-18928D01*
X65497Y-21032D01*
X66485Y-21032D01*
X66485Y-26207D01*
X66477Y-26193D01*
X66393Y-26171D01*
X66393Y-24740D01*
X66377Y-24639D01*
X66343Y-24542D01*
X66319Y-24500D01*
X66308Y-24497D01*
X66308Y-22061D01*
X66308Y-22028D01*
X66308Y-21477D01*
X66302Y-21445D01*
X66289Y-21415D01*
X66271Y-21387D01*
X66248Y-21364D01*
X66221Y-21346D01*
X66191Y-21333D01*
X66159Y-21326D01*
X66126Y-21326D01*
X65575Y-21326D01*
X65543Y-21332D01*
X65513Y-21345D01*
X65485Y-21363D01*
X65462Y-21386D01*
X65444Y-21413D01*
X65431Y-21443D01*
X65424Y-21475D01*
X65424Y-21508D01*
X65424Y-22059D01*
X65430Y-22091D01*
X65443Y-22121D01*
X65461Y-22149D01*
X65484Y-22172D01*
X65511Y-22190D01*
X65541Y-22203D01*
X65573Y-22210D01*
X65606Y-22210D01*
X66157Y-22210D01*
X66189Y-22204D01*
X66219Y-22191D01*
X66247Y-22173D01*
X66270Y-22150D01*
X66288Y-22123D01*
X66301Y-22093D01*
X66308Y-22061D01*
X66308Y-24497D01*
X66228Y-24477D01*
X66157Y-24548D01*
X66157Y-24406D01*
X66134Y-24315D01*
X66041Y-24271D01*
X65941Y-24246D01*
X65838Y-24241D01*
X65737Y-24257D01*
X65640Y-24291D01*
X65598Y-24315D01*
X65575Y-24406D01*
X65866Y-24697D01*
X66157Y-24406D01*
X66157Y-24548D01*
X65937Y-24768D01*
X66228Y-25059D01*
X66319Y-25036D01*
X66363Y-24943D01*
X66388Y-24843D01*
X66393Y-24740D01*
X66393Y-26171D01*
X66386Y-26170D01*
X66315Y-26241D01*
X66315Y-26099D01*
X66292Y-26008D01*
X66199Y-25964D01*
X66157Y-25953D01*
X66157Y-25130D01*
X65866Y-24839D01*
X65795Y-24910D01*
X65795Y-24768D01*
X65504Y-24477D01*
X65413Y-24500D01*
X65369Y-24593D01*
X65344Y-24693D01*
X65339Y-24796D01*
X65355Y-24897D01*
X65389Y-24994D01*
X65413Y-25036D01*
X65504Y-25059D01*
X65795Y-24768D01*
X65795Y-24910D01*
X65575Y-25130D01*
X65598Y-25221D01*
X65691Y-25265D01*
X65791Y-25290D01*
X65894Y-25295D01*
X65995Y-25279D01*
X66092Y-25245D01*
X66134Y-25221D01*
X66157Y-25130D01*
X66157Y-25953D01*
X66099Y-25939D01*
X65996Y-25934D01*
X65895Y-25950D01*
X65798Y-25984D01*
X65756Y-26008D01*
X65733Y-26099D01*
X66024Y-26390D01*
X66315Y-26099D01*
X66315Y-26241D01*
X66095Y-26461D01*
X66386Y-26752D01*
X66477Y-26729D01*
X66485Y-26712D01*
X66485Y-34989D01*
X66485Y-34989D01*
G37*
G54D21*
X66485Y-34989D02*
X66467Y-34989D01*
X66467Y-28418D01*
X66450Y-28333D01*
X66417Y-28252D01*
X66369Y-28180D01*
X66315Y-28125D01*
X66315Y-26823D01*
X66024Y-26532D01*
X65953Y-26603D01*
X65953Y-26461D01*
X65662Y-26170D01*
X65571Y-26193D01*
X65527Y-26286D01*
X65502Y-26386D01*
X65497Y-26489D01*
X65513Y-26590D01*
X65547Y-26687D01*
X65571Y-26729D01*
X65662Y-26752D01*
X65953Y-26461D01*
X65953Y-26603D01*
X65733Y-26823D01*
X65756Y-26914D01*
X65849Y-26958D01*
X65949Y-26983D01*
X66052Y-26988D01*
X66153Y-26972D01*
X66250Y-26938D01*
X66292Y-26914D01*
X66315Y-26823D01*
X66315Y-28125D01*
X66308Y-28118D01*
X66236Y-28070D01*
X66156Y-28036D01*
X66071Y-28018D01*
X65984Y-28018D01*
X65899Y-28034D01*
X65818Y-28066D01*
X65745Y-28114D01*
X65683Y-28175D01*
X65634Y-28246D01*
X65600Y-28326D01*
X65582Y-28411D01*
X65580Y-28498D01*
X65596Y-28583D01*
X65628Y-28664D01*
X65675Y-28737D01*
X65735Y-28800D01*
X65806Y-28849D01*
X65886Y-28884D01*
X65971Y-28903D01*
X66058Y-28905D01*
X66143Y-28890D01*
X66224Y-28858D01*
X66298Y-28812D01*
X66361Y-28752D01*
X66411Y-28681D01*
X66446Y-28602D01*
X66466Y-28517D01*
X66467Y-28418D01*
X66467Y-34989D01*
X64955Y-34989D01*
X64955Y-29390D01*
X64954Y-29385D01*
X64954Y-26726D01*
X64954Y-26693D01*
X64954Y-26142D01*
X64948Y-26110D01*
X64935Y-26080D01*
X64917Y-26052D01*
X64894Y-26029D01*
X64892Y-26027D01*
X64892Y-23115D01*
X64892Y-21748D01*
X64875Y-21663D01*
X64842Y-21582D01*
X64794Y-21510D01*
X64733Y-21448D01*
X64661Y-21400D01*
X64581Y-21366D01*
X64496Y-21348D01*
X64409Y-21348D01*
X64324Y-21364D01*
X64243Y-21396D01*
X64170Y-21444D01*
X64108Y-21505D01*
X64059Y-21576D01*
X64025Y-21656D01*
X64007Y-21741D01*
X64005Y-21828D01*
X64021Y-21913D01*
X64053Y-21994D01*
X64100Y-22067D01*
X64160Y-22130D01*
X64231Y-22179D01*
X64311Y-22214D01*
X64396Y-22233D01*
X64483Y-22235D01*
X64568Y-22220D01*
X64649Y-22188D01*
X64723Y-22142D01*
X64786Y-22082D01*
X64836Y-22011D01*
X64871Y-21932D01*
X64891Y-21847D01*
X64892Y-21748D01*
X64892Y-23115D01*
X64875Y-23030D01*
X64842Y-22949D01*
X64794Y-22877D01*
X64733Y-22815D01*
X64661Y-22767D01*
X64581Y-22733D01*
X64496Y-22715D01*
X64409Y-22715D01*
X64324Y-22731D01*
X64243Y-22763D01*
X64170Y-22811D01*
X64108Y-22872D01*
X64059Y-22943D01*
X64025Y-23023D01*
X64007Y-23108D01*
X64005Y-23195D01*
X64021Y-23280D01*
X64053Y-23361D01*
X64100Y-23434D01*
X64160Y-23497D01*
X64231Y-23546D01*
X64311Y-23581D01*
X64396Y-23600D01*
X64483Y-23602D01*
X64568Y-23587D01*
X64649Y-23555D01*
X64723Y-23509D01*
X64786Y-23449D01*
X64836Y-23378D01*
X64871Y-23299D01*
X64891Y-23214D01*
X64892Y-23115D01*
X64892Y-26027D01*
X64867Y-26011D01*
X64837Y-25998D01*
X64805Y-25991D01*
X64772Y-25991D01*
X64221Y-25991D01*
X64189Y-25997D01*
X64159Y-26010D01*
X64131Y-26028D01*
X64108Y-26051D01*
X64090Y-26078D01*
X64077Y-26108D01*
X64070Y-26140D01*
X64070Y-26173D01*
X64070Y-26724D01*
X64076Y-26756D01*
X64089Y-26786D01*
X64107Y-26814D01*
X64130Y-26837D01*
X64157Y-26855D01*
X64187Y-26868D01*
X64219Y-26875D01*
X64252Y-26875D01*
X64304Y-26875D01*
X64304Y-26936D01*
X64165Y-27075D01*
X63966Y-27075D01*
X63966Y-19740D01*
X63949Y-19655D01*
X63916Y-19574D01*
X63868Y-19502D01*
X63807Y-19440D01*
X63735Y-19392D01*
X63728Y-19389D01*
X63797Y-19347D01*
X63860Y-19287D01*
X63910Y-19216D01*
X63945Y-19137D01*
X63965Y-19052D01*
X63966Y-18953D01*
X63949Y-18868D01*
X63916Y-18787D01*
X63868Y-18715D01*
X63807Y-18653D01*
X63735Y-18605D01*
X63655Y-18571D01*
X63570Y-18553D01*
X63483Y-18553D01*
X63398Y-18569D01*
X63317Y-18601D01*
X63244Y-18649D01*
X63182Y-18710D01*
X63133Y-18781D01*
X63099Y-18861D01*
X63081Y-18946D01*
X63079Y-19033D01*
X63095Y-19118D01*
X63127Y-19199D01*
X63174Y-19272D01*
X63234Y-19335D01*
X63305Y-19384D01*
X63315Y-19388D01*
X63244Y-19436D01*
X63182Y-19497D01*
X63133Y-19568D01*
X63099Y-19648D01*
X63081Y-19733D01*
X63079Y-19820D01*
X63095Y-19905D01*
X63127Y-19986D01*
X63174Y-20059D01*
X63234Y-20122D01*
X63305Y-20171D01*
X63385Y-20206D01*
X63470Y-20225D01*
X63557Y-20227D01*
X63642Y-20212D01*
X63723Y-20180D01*
X63797Y-20134D01*
X63860Y-20074D01*
X63910Y-20003D01*
X63945Y-19924D01*
X63965Y-19839D01*
X63966Y-19740D01*
X63966Y-27075D01*
X63955Y-27075D01*
X63955Y-26390D01*
X63938Y-26305D01*
X63905Y-26224D01*
X63857Y-26152D01*
X63796Y-26090D01*
X63724Y-26042D01*
X63644Y-26008D01*
X63559Y-25990D01*
X63472Y-25990D01*
X63396Y-26004D01*
X63396Y-23115D01*
X63396Y-21748D01*
X63379Y-21663D01*
X63346Y-21582D01*
X63298Y-21510D01*
X63237Y-21448D01*
X63165Y-21400D01*
X63085Y-21366D01*
X63066Y-21361D01*
X63066Y-18968D01*
X63050Y-18867D01*
X63016Y-18770D01*
X62992Y-18728D01*
X62901Y-18705D01*
X62830Y-18776D01*
X62830Y-18634D01*
X62807Y-18543D01*
X62714Y-18499D01*
X62614Y-18474D01*
X62511Y-18469D01*
X62410Y-18485D01*
X62313Y-18519D01*
X62271Y-18543D01*
X62248Y-18634D01*
X62539Y-18925D01*
X62830Y-18634D01*
X62830Y-18776D01*
X62610Y-18996D01*
X62901Y-19287D01*
X62992Y-19264D01*
X63036Y-19171D01*
X63061Y-19071D01*
X63066Y-18968D01*
X63066Y-21361D01*
X63000Y-21348D01*
X62982Y-21348D01*
X62982Y-19740D01*
X62965Y-19655D01*
X62932Y-19574D01*
X62884Y-19502D01*
X62823Y-19440D01*
X62811Y-19432D01*
X62830Y-19358D01*
X62539Y-19067D01*
X62468Y-19138D01*
X62468Y-18996D01*
X62177Y-18705D01*
X62086Y-18728D01*
X62042Y-18821D01*
X62017Y-18921D01*
X62012Y-19024D01*
X62028Y-19125D01*
X62062Y-19222D01*
X62086Y-19264D01*
X62177Y-19287D01*
X62468Y-18996D01*
X62468Y-19138D01*
X62248Y-19358D01*
X62266Y-19431D01*
X62260Y-19436D01*
X62198Y-19497D01*
X62157Y-19556D01*
X61575Y-19556D01*
X61563Y-19557D01*
X61563Y-17912D01*
X61543Y-17737D01*
X61490Y-17569D01*
X61419Y-17436D01*
X61290Y-17367D01*
X61219Y-17438D01*
X61219Y-17296D01*
X61150Y-17167D01*
X60993Y-17086D01*
X60824Y-17038D01*
X60648Y-17023D01*
X60473Y-17043D01*
X60305Y-17096D01*
X60172Y-17167D01*
X60103Y-17296D01*
X60661Y-17854D01*
X61219Y-17296D01*
X61219Y-17438D01*
X60732Y-17925D01*
X61290Y-18483D01*
X61419Y-18414D01*
X61500Y-18257D01*
X61548Y-18088D01*
X61563Y-17912D01*
X61563Y-19557D01*
X61531Y-19560D01*
X61488Y-19573D01*
X61449Y-19594D01*
X61423Y-19615D01*
X61416Y-19621D01*
X61415Y-19622D01*
X61414Y-19623D01*
X61219Y-19817D01*
X61219Y-18554D01*
X60661Y-17996D01*
X60590Y-18067D01*
X60590Y-17925D01*
X60032Y-17367D01*
X59903Y-17436D01*
X59822Y-17593D01*
X59774Y-17762D01*
X59759Y-17938D01*
X59779Y-18113D01*
X59832Y-18281D01*
X59903Y-18414D01*
X60032Y-18483D01*
X60590Y-17925D01*
X60590Y-18067D01*
X60103Y-18554D01*
X60172Y-18683D01*
X60329Y-18764D01*
X60498Y-18812D01*
X60674Y-18827D01*
X60849Y-18807D01*
X61017Y-18754D01*
X61150Y-18683D01*
X61219Y-18554D01*
X61219Y-19817D01*
X60685Y-20351D01*
X60657Y-20385D01*
X60637Y-20421D01*
X60637Y-20423D01*
X60636Y-20423D01*
X60636Y-20425D01*
X60623Y-20467D01*
X60619Y-20501D01*
X60619Y-20509D01*
X60619Y-20511D01*
X60619Y-20512D01*
X60619Y-22897D01*
X60601Y-22915D01*
X60601Y-21748D01*
X60584Y-21663D01*
X60551Y-21582D01*
X60503Y-21510D01*
X60442Y-21448D01*
X60370Y-21400D01*
X60290Y-21366D01*
X60205Y-21348D01*
X60118Y-21348D01*
X60033Y-21364D01*
X59952Y-21396D01*
X59879Y-21444D01*
X59817Y-21505D01*
X59768Y-21576D01*
X59734Y-21656D01*
X59716Y-21741D01*
X59714Y-21828D01*
X59730Y-21913D01*
X59762Y-21994D01*
X59809Y-22067D01*
X59869Y-22130D01*
X59940Y-22179D01*
X60020Y-22214D01*
X60105Y-22233D01*
X60192Y-22235D01*
X60277Y-22220D01*
X60358Y-22188D01*
X60432Y-22142D01*
X60495Y-22082D01*
X60545Y-22011D01*
X60580Y-21932D01*
X60600Y-21847D01*
X60601Y-21748D01*
X60601Y-22915D01*
X60585Y-22931D01*
X60539Y-22931D01*
X60503Y-22877D01*
X60442Y-22815D01*
X60370Y-22767D01*
X60290Y-22733D01*
X60205Y-22715D01*
X60118Y-22715D01*
X60033Y-22731D01*
X59952Y-22763D01*
X59879Y-22811D01*
X59817Y-22872D01*
X59768Y-22943D01*
X59734Y-23023D01*
X59716Y-23108D01*
X59714Y-23195D01*
X59730Y-23280D01*
X59762Y-23361D01*
X59809Y-23434D01*
X59869Y-23497D01*
X59931Y-23539D01*
X59931Y-24019D01*
X59800Y-24150D01*
X59772Y-24184D01*
X59752Y-24220D01*
X59752Y-24222D01*
X59751Y-24222D01*
X59751Y-24224D01*
X59738Y-24266D01*
X59734Y-24300D01*
X59734Y-24308D01*
X59734Y-24310D01*
X59734Y-24311D01*
X59734Y-24799D01*
X59682Y-24834D01*
X59620Y-24895D01*
X59571Y-24966D01*
X59537Y-25046D01*
X59519Y-25131D01*
X59517Y-25218D01*
X59533Y-25303D01*
X59565Y-25384D01*
X59612Y-25457D01*
X59672Y-25520D01*
X59743Y-25569D01*
X59823Y-25604D01*
X59908Y-25623D01*
X59995Y-25625D01*
X60080Y-25610D01*
X60161Y-25578D01*
X60235Y-25532D01*
X60298Y-25472D01*
X60348Y-25401D01*
X60383Y-25322D01*
X60403Y-25237D01*
X60404Y-25138D01*
X60387Y-25053D01*
X60354Y-24972D01*
X60306Y-24900D01*
X60245Y-24838D01*
X60188Y-24800D01*
X60188Y-24405D01*
X60317Y-24276D01*
X60318Y-24275D01*
X60345Y-24242D01*
X60346Y-24241D01*
X60363Y-24210D01*
X60367Y-24203D01*
X60367Y-24202D01*
X60368Y-24201D01*
X60372Y-24185D01*
X60380Y-24161D01*
X60380Y-24159D01*
X60385Y-24117D01*
X60385Y-24115D01*
X60385Y-24114D01*
X60385Y-23538D01*
X60432Y-23509D01*
X60495Y-23449D01*
X60540Y-23385D01*
X60678Y-23385D01*
X60680Y-23385D01*
X60722Y-23381D01*
X60724Y-23381D01*
X60748Y-23373D01*
X60765Y-23369D01*
X60766Y-23368D01*
X60767Y-23368D01*
X60804Y-23348D01*
X60806Y-23347D01*
X60826Y-23330D01*
X60838Y-23321D01*
X60840Y-23319D01*
X60841Y-23319D01*
X61005Y-23154D01*
X61006Y-23153D01*
X61033Y-23120D01*
X61034Y-23119D01*
X61043Y-23102D01*
X61055Y-23081D01*
X61055Y-23080D01*
X61068Y-23039D01*
X61068Y-23037D01*
X61073Y-22995D01*
X61073Y-22992D01*
X61073Y-20606D01*
X61669Y-20010D01*
X62158Y-20010D01*
X62190Y-20059D01*
X62250Y-20122D01*
X62321Y-20171D01*
X62401Y-20206D01*
X62486Y-20225D01*
X62573Y-20227D01*
X62658Y-20212D01*
X62739Y-20180D01*
X62813Y-20134D01*
X62876Y-20074D01*
X62926Y-20003D01*
X62961Y-19924D01*
X62981Y-19839D01*
X62982Y-19740D01*
X62982Y-21348D01*
X62913Y-21348D01*
X62828Y-21364D01*
X62747Y-21396D01*
X62674Y-21444D01*
X62612Y-21505D01*
X62563Y-21576D01*
X62529Y-21656D01*
X62511Y-21741D01*
X62509Y-21828D01*
X62525Y-21913D01*
X62557Y-21994D01*
X62604Y-22067D01*
X62664Y-22130D01*
X62735Y-22179D01*
X62815Y-22214D01*
X62900Y-22233D01*
X62987Y-22235D01*
X63072Y-22220D01*
X63153Y-22188D01*
X63227Y-22142D01*
X63290Y-22082D01*
X63340Y-22011D01*
X63375Y-21932D01*
X63395Y-21847D01*
X63396Y-21748D01*
X63396Y-23115D01*
X63379Y-23030D01*
X63346Y-22949D01*
X63298Y-22877D01*
X63237Y-22815D01*
X63165Y-22767D01*
X63085Y-22733D01*
X63000Y-22715D01*
X62913Y-22715D01*
X62828Y-22731D01*
X62747Y-22763D01*
X62674Y-22811D01*
X62612Y-22872D01*
X62563Y-22943D01*
X62529Y-23023D01*
X62511Y-23108D01*
X62509Y-23195D01*
X62525Y-23280D01*
X62557Y-23361D01*
X62604Y-23434D01*
X62664Y-23497D01*
X62735Y-23546D01*
X62815Y-23581D01*
X62900Y-23600D01*
X62987Y-23602D01*
X63072Y-23587D01*
X63153Y-23555D01*
X63227Y-23509D01*
X63290Y-23449D01*
X63340Y-23378D01*
X63375Y-23299D01*
X63395Y-23214D01*
X63396Y-23115D01*
X63396Y-26004D01*
X63387Y-26006D01*
X63306Y-26038D01*
X63233Y-26086D01*
X63171Y-26147D01*
X63122Y-26218D01*
X63088Y-26298D01*
X63070Y-26383D01*
X63068Y-26470D01*
X63084Y-26555D01*
X63116Y-26636D01*
X63163Y-26709D01*
X63223Y-26772D01*
X63294Y-26821D01*
X63374Y-26856D01*
X63459Y-26875D01*
X63546Y-26877D01*
X63631Y-26862D01*
X63712Y-26830D01*
X63786Y-26784D01*
X63849Y-26724D01*
X63899Y-26653D01*
X63934Y-26574D01*
X63954Y-26489D01*
X63955Y-26390D01*
X63955Y-27075D01*
X62955Y-27075D01*
X62955Y-26390D01*
X62938Y-26305D01*
X62905Y-26224D01*
X62857Y-26152D01*
X62796Y-26090D01*
X62724Y-26042D01*
X62644Y-26008D01*
X62559Y-25990D01*
X62472Y-25990D01*
X62387Y-26006D01*
X62306Y-26038D01*
X62233Y-26086D01*
X62171Y-26147D01*
X62122Y-26218D01*
X62088Y-26298D01*
X62082Y-26326D01*
X62082Y-24759D01*
X62066Y-24658D01*
X62032Y-24561D01*
X62008Y-24519D01*
X61997Y-24516D01*
X61997Y-22080D01*
X61997Y-22047D01*
X61997Y-21496D01*
X61991Y-21464D01*
X61978Y-21434D01*
X61960Y-21406D01*
X61937Y-21383D01*
X61910Y-21365D01*
X61880Y-21352D01*
X61848Y-21345D01*
X61815Y-21345D01*
X61264Y-21345D01*
X61232Y-21351D01*
X61202Y-21364D01*
X61174Y-21382D01*
X61151Y-21405D01*
X61133Y-21432D01*
X61120Y-21462D01*
X61113Y-21494D01*
X61113Y-21527D01*
X61113Y-22078D01*
X61119Y-22110D01*
X61132Y-22140D01*
X61150Y-22168D01*
X61173Y-22191D01*
X61200Y-22209D01*
X61230Y-22222D01*
X61262Y-22229D01*
X61295Y-22229D01*
X61846Y-22229D01*
X61878Y-22223D01*
X61908Y-22210D01*
X61936Y-22192D01*
X61959Y-22169D01*
X61977Y-22142D01*
X61990Y-22112D01*
X61997Y-22080D01*
X61997Y-24516D01*
X61917Y-24496D01*
X61846Y-24567D01*
X61846Y-24425D01*
X61823Y-24334D01*
X61730Y-24290D01*
X61630Y-24265D01*
X61527Y-24260D01*
X61426Y-24276D01*
X61329Y-24310D01*
X61287Y-24334D01*
X61264Y-24425D01*
X61555Y-24716D01*
X61846Y-24425D01*
X61846Y-24567D01*
X61626Y-24787D01*
X61917Y-25078D01*
X62008Y-25055D01*
X62052Y-24962D01*
X62077Y-24862D01*
X62082Y-24759D01*
X62082Y-26326D01*
X62070Y-26383D01*
X62068Y-26470D01*
X62084Y-26555D01*
X62116Y-26636D01*
X62163Y-26709D01*
X62223Y-26772D01*
X62294Y-26821D01*
X62374Y-26856D01*
X62459Y-26875D01*
X62546Y-26877D01*
X62631Y-26862D01*
X62712Y-26830D01*
X62786Y-26784D01*
X62849Y-26724D01*
X62899Y-26653D01*
X62934Y-26574D01*
X62954Y-26489D01*
X62955Y-26390D01*
X62955Y-27075D01*
X62039Y-27075D01*
X62039Y-26405D01*
X62023Y-26304D01*
X61989Y-26207D01*
X61965Y-26165D01*
X61874Y-26142D01*
X61846Y-26170D01*
X61846Y-25149D01*
X61555Y-24858D01*
X61484Y-24929D01*
X61484Y-24787D01*
X61193Y-24496D01*
X61102Y-24519D01*
X61058Y-24612D01*
X61033Y-24712D01*
X61028Y-24815D01*
X61044Y-24916D01*
X61078Y-25013D01*
X61102Y-25055D01*
X61193Y-25078D01*
X61484Y-24787D01*
X61484Y-24929D01*
X61264Y-25149D01*
X61287Y-25240D01*
X61380Y-25284D01*
X61480Y-25309D01*
X61583Y-25314D01*
X61684Y-25298D01*
X61781Y-25264D01*
X61823Y-25240D01*
X61846Y-25149D01*
X61846Y-26170D01*
X61803Y-26213D01*
X61803Y-26071D01*
X61780Y-25980D01*
X61687Y-25936D01*
X61587Y-25911D01*
X61484Y-25906D01*
X61383Y-25922D01*
X61286Y-25956D01*
X61244Y-25980D01*
X61221Y-26071D01*
X61512Y-26362D01*
X61803Y-26071D01*
X61803Y-26213D01*
X61583Y-26433D01*
X61874Y-26724D01*
X61965Y-26701D01*
X62009Y-26608D01*
X62034Y-26508D01*
X62039Y-26405D01*
X62039Y-27075D01*
X61803Y-27075D01*
X61803Y-26795D01*
X61512Y-26504D01*
X61441Y-26575D01*
X61441Y-26433D01*
X61150Y-26142D01*
X61059Y-26165D01*
X61015Y-26258D01*
X60990Y-26358D01*
X60985Y-26461D01*
X61001Y-26562D01*
X61035Y-26659D01*
X61059Y-26701D01*
X61150Y-26724D01*
X61441Y-26433D01*
X61441Y-26575D01*
X61221Y-26795D01*
X61244Y-26886D01*
X61337Y-26930D01*
X61437Y-26955D01*
X61540Y-26960D01*
X61641Y-26944D01*
X61738Y-26910D01*
X61780Y-26886D01*
X61803Y-26795D01*
X61803Y-27075D01*
X61479Y-27075D01*
X61477Y-27075D01*
X61471Y-27075D01*
X61439Y-27078D01*
X61400Y-27090D01*
X61398Y-27090D01*
X61398Y-27091D01*
X61362Y-27110D01*
X61330Y-27135D01*
X61326Y-27139D01*
X60842Y-27623D01*
X60838Y-27627D01*
X60812Y-27658D01*
X60793Y-27694D01*
X60792Y-27694D01*
X60792Y-27696D01*
X60780Y-27735D01*
X60775Y-27775D01*
X60776Y-27783D01*
X60776Y-32312D01*
X60775Y-32320D01*
X60779Y-32360D01*
X60791Y-32399D01*
X60791Y-32400D01*
X60792Y-32401D01*
X60810Y-32435D01*
X60811Y-32437D01*
X60835Y-32467D01*
X60836Y-32469D01*
X60837Y-32469D01*
X60840Y-32472D01*
X61474Y-33106D01*
X61478Y-33111D01*
X61480Y-33112D01*
X61509Y-33137D01*
X61545Y-33156D01*
X61547Y-33156D01*
X61566Y-33162D01*
X61567Y-33162D01*
X61574Y-33180D01*
X61624Y-33257D01*
X61687Y-33323D01*
X61763Y-33376D01*
X61847Y-33412D01*
X61900Y-33423D01*
X61860Y-33430D01*
X61759Y-33466D01*
X61710Y-33492D01*
X61683Y-33585D01*
X61992Y-33894D01*
X62301Y-33585D01*
X62274Y-33492D01*
X62177Y-33446D01*
X62087Y-33423D01*
X62119Y-33418D01*
X62204Y-33385D01*
X62282Y-33335D01*
X62348Y-33272D01*
X62401Y-33197D01*
X62438Y-33113D01*
X62459Y-33024D01*
X62460Y-32919D01*
X62442Y-32829D01*
X62407Y-32744D01*
X62356Y-32668D01*
X62292Y-32603D01*
X62216Y-32551D01*
X62131Y-32516D01*
X62041Y-32497D01*
X61949Y-32497D01*
X61859Y-32514D01*
X61774Y-32548D01*
X61697Y-32599D01*
X61632Y-32663D01*
X61626Y-32670D01*
X61192Y-32236D01*
X61192Y-29739D01*
X61223Y-29772D01*
X61294Y-29821D01*
X61374Y-29856D01*
X61459Y-29875D01*
X61546Y-29877D01*
X61631Y-29862D01*
X61712Y-29830D01*
X61786Y-29784D01*
X61849Y-29724D01*
X61899Y-29653D01*
X61934Y-29574D01*
X61954Y-29489D01*
X61955Y-29390D01*
X61938Y-29305D01*
X61905Y-29224D01*
X61857Y-29152D01*
X61796Y-29090D01*
X61724Y-29042D01*
X61644Y-29008D01*
X61559Y-28990D01*
X61472Y-28990D01*
X61387Y-29006D01*
X61306Y-29038D01*
X61233Y-29086D01*
X61192Y-29126D01*
X61192Y-27862D01*
X61563Y-27491D01*
X64242Y-27491D01*
X64250Y-27492D01*
X64252Y-27491D01*
X64290Y-27488D01*
X64292Y-27487D01*
X64329Y-27476D01*
X64330Y-27475D01*
X64331Y-27475D01*
X64365Y-27457D01*
X64367Y-27456D01*
X64397Y-27432D01*
X64399Y-27431D01*
X64399Y-27430D01*
X64402Y-27426D01*
X64657Y-27172D01*
X64658Y-27172D01*
X64658Y-27171D01*
X64659Y-27171D01*
X64661Y-27168D01*
X64684Y-27141D01*
X64684Y-27139D01*
X64703Y-27105D01*
X64703Y-27103D01*
X64715Y-27066D01*
X64715Y-27065D01*
X64720Y-27026D01*
X64720Y-27024D01*
X64720Y-27023D01*
X64720Y-26875D01*
X64803Y-26875D01*
X64835Y-26869D01*
X64865Y-26856D01*
X64893Y-26838D01*
X64916Y-26815D01*
X64934Y-26788D01*
X64947Y-26758D01*
X64954Y-26726D01*
X64954Y-29385D01*
X64938Y-29305D01*
X64905Y-29224D01*
X64857Y-29152D01*
X64796Y-29090D01*
X64724Y-29042D01*
X64644Y-29008D01*
X64559Y-28990D01*
X64472Y-28990D01*
X64387Y-29006D01*
X64306Y-29038D01*
X64233Y-29086D01*
X64171Y-29147D01*
X64122Y-29218D01*
X64088Y-29298D01*
X64070Y-29383D01*
X64068Y-29470D01*
X64084Y-29555D01*
X64116Y-29636D01*
X64163Y-29709D01*
X64223Y-29772D01*
X64294Y-29821D01*
X64374Y-29856D01*
X64459Y-29875D01*
X64546Y-29877D01*
X64631Y-29862D01*
X64712Y-29830D01*
X64786Y-29784D01*
X64849Y-29724D01*
X64899Y-29653D01*
X64934Y-29574D01*
X64954Y-29489D01*
X64955Y-29390D01*
X64955Y-34989D01*
X64460Y-34989D01*
X64460Y-33919D01*
X64459Y-33914D01*
X64459Y-33283D01*
X64459Y-33250D01*
X64459Y-32649D01*
X64453Y-32617D01*
X64440Y-32587D01*
X64422Y-32559D01*
X64399Y-32536D01*
X64372Y-32518D01*
X64342Y-32505D01*
X64310Y-32498D01*
X64277Y-32498D01*
X63955Y-32498D01*
X63955Y-29390D01*
X63938Y-29305D01*
X63905Y-29224D01*
X63857Y-29152D01*
X63796Y-29090D01*
X63724Y-29042D01*
X63644Y-29008D01*
X63559Y-28990D01*
X63472Y-28990D01*
X63387Y-29006D01*
X63306Y-29038D01*
X63233Y-29086D01*
X63171Y-29147D01*
X63122Y-29218D01*
X63088Y-29298D01*
X63070Y-29383D01*
X63068Y-29470D01*
X63084Y-29555D01*
X63116Y-29636D01*
X63163Y-29709D01*
X63223Y-29772D01*
X63294Y-29821D01*
X63304Y-29825D01*
X63304Y-30516D01*
X62955Y-30864D01*
X62955Y-29390D01*
X62938Y-29305D01*
X62905Y-29224D01*
X62857Y-29152D01*
X62796Y-29090D01*
X62724Y-29042D01*
X62644Y-29008D01*
X62559Y-28990D01*
X62472Y-28990D01*
X62387Y-29006D01*
X62306Y-29038D01*
X62233Y-29086D01*
X62171Y-29147D01*
X62122Y-29218D01*
X62088Y-29298D01*
X62070Y-29383D01*
X62068Y-29470D01*
X62084Y-29555D01*
X62116Y-29636D01*
X62163Y-29709D01*
X62223Y-29772D01*
X62294Y-29821D01*
X62374Y-29856D01*
X62459Y-29875D01*
X62546Y-29877D01*
X62631Y-29862D01*
X62712Y-29830D01*
X62786Y-29784D01*
X62849Y-29724D01*
X62899Y-29653D01*
X62934Y-29574D01*
X62954Y-29489D01*
X62955Y-29390D01*
X62955Y-30864D01*
X62850Y-30969D01*
X62846Y-30973D01*
X62820Y-31004D01*
X62801Y-31040D01*
X62800Y-31040D01*
X62800Y-31042D01*
X62788Y-31081D01*
X62783Y-31121D01*
X62784Y-31129D01*
X62784Y-32544D01*
X62774Y-32548D01*
X62697Y-32599D01*
X62632Y-32663D01*
X62580Y-32739D01*
X62544Y-32823D01*
X62525Y-32913D01*
X62523Y-33004D01*
X62540Y-33095D01*
X62574Y-33180D01*
X62624Y-33257D01*
X62687Y-33323D01*
X62763Y-33376D01*
X62847Y-33412D01*
X62936Y-33432D01*
X63028Y-33434D01*
X63119Y-33418D01*
X63204Y-33385D01*
X63282Y-33335D01*
X63348Y-33272D01*
X63401Y-33197D01*
X63438Y-33113D01*
X63459Y-33024D01*
X63460Y-32919D01*
X63442Y-32829D01*
X63407Y-32744D01*
X63356Y-32668D01*
X63292Y-32603D01*
X63216Y-32551D01*
X63200Y-32544D01*
X63200Y-31208D01*
X63653Y-30754D01*
X63658Y-30751D01*
X63659Y-30749D01*
X63684Y-30720D01*
X63684Y-30718D01*
X63703Y-30684D01*
X63703Y-30682D01*
X63715Y-30645D01*
X63715Y-30643D01*
X63720Y-30605D01*
X63720Y-30603D01*
X63720Y-30602D01*
X63720Y-29825D01*
X63786Y-29784D01*
X63849Y-29724D01*
X63899Y-29653D01*
X63934Y-29574D01*
X63954Y-29489D01*
X63955Y-29390D01*
X63955Y-32498D01*
X63676Y-32498D01*
X63644Y-32504D01*
X63614Y-32517D01*
X63586Y-32535D01*
X63563Y-32558D01*
X63545Y-32585D01*
X63532Y-32615D01*
X63525Y-32647D01*
X63525Y-32680D01*
X63525Y-33281D01*
X63531Y-33313D01*
X63544Y-33343D01*
X63562Y-33371D01*
X63585Y-33394D01*
X63612Y-33412D01*
X63642Y-33425D01*
X63674Y-33432D01*
X63707Y-33432D01*
X64308Y-33432D01*
X64340Y-33426D01*
X64370Y-33413D01*
X64398Y-33395D01*
X64421Y-33372D01*
X64439Y-33345D01*
X64452Y-33315D01*
X64459Y-33283D01*
X64459Y-33914D01*
X64442Y-33829D01*
X64407Y-33744D01*
X64356Y-33668D01*
X64292Y-33603D01*
X64216Y-33551D01*
X64131Y-33516D01*
X64041Y-33497D01*
X63949Y-33497D01*
X63859Y-33514D01*
X63774Y-33548D01*
X63697Y-33599D01*
X63632Y-33663D01*
X63580Y-33739D01*
X63544Y-33823D01*
X63525Y-33913D01*
X63523Y-34004D01*
X63540Y-34095D01*
X63574Y-34180D01*
X63624Y-34257D01*
X63687Y-34323D01*
X63763Y-34376D01*
X63847Y-34412D01*
X63936Y-34432D01*
X64028Y-34434D01*
X64119Y-34418D01*
X64204Y-34385D01*
X64282Y-34335D01*
X64348Y-34272D01*
X64401Y-34197D01*
X64438Y-34113D01*
X64459Y-34024D01*
X64460Y-33919D01*
X64460Y-34989D01*
X63460Y-34989D01*
X63460Y-33919D01*
X63442Y-33829D01*
X63407Y-33744D01*
X63356Y-33668D01*
X63292Y-33603D01*
X63216Y-33551D01*
X63131Y-33516D01*
X63041Y-33497D01*
X62949Y-33497D01*
X62859Y-33514D01*
X62774Y-33548D01*
X62697Y-33599D01*
X62632Y-33663D01*
X62580Y-33739D01*
X62544Y-33823D01*
X62533Y-33874D01*
X62527Y-33833D01*
X62491Y-33732D01*
X62465Y-33683D01*
X62372Y-33656D01*
X62063Y-33965D01*
X62372Y-34274D01*
X62465Y-34247D01*
X62511Y-34150D01*
X62533Y-34060D01*
X62540Y-34095D01*
X62574Y-34180D01*
X62624Y-34257D01*
X62687Y-34323D01*
X62763Y-34376D01*
X62847Y-34412D01*
X62936Y-34432D01*
X63028Y-34434D01*
X63119Y-34418D01*
X63204Y-34385D01*
X63282Y-34335D01*
X63348Y-34272D01*
X63401Y-34197D01*
X63438Y-34113D01*
X63459Y-34024D01*
X63460Y-33919D01*
X63460Y-34989D01*
X62301Y-34989D01*
X62301Y-34345D01*
X61992Y-34036D01*
X61921Y-34107D01*
X61921Y-33965D01*
X61612Y-33656D01*
X61519Y-33683D01*
X61473Y-33780D01*
X61447Y-33884D01*
X61441Y-33991D01*
X61457Y-34097D01*
X61493Y-34198D01*
X61519Y-34247D01*
X61612Y-34274D01*
X61921Y-33965D01*
X61921Y-34107D01*
X61683Y-34345D01*
X61710Y-34438D01*
X61807Y-34484D01*
X61911Y-34510D01*
X62018Y-34516D01*
X62124Y-34500D01*
X62225Y-34464D01*
X62274Y-34438D01*
X62301Y-34345D01*
X62301Y-34989D01*
X60488Y-34989D01*
X60488Y-27153D01*
X60472Y-27052D01*
X60438Y-26955D01*
X60414Y-26913D01*
X60323Y-26890D01*
X60252Y-26961D01*
X60252Y-26819D01*
X60229Y-26728D01*
X60136Y-26684D01*
X60036Y-26659D01*
X59933Y-26654D01*
X59832Y-26670D01*
X59735Y-26704D01*
X59693Y-26728D01*
X59670Y-26819D01*
X59961Y-27110D01*
X60252Y-26819D01*
X60252Y-26961D01*
X60032Y-27181D01*
X60323Y-27472D01*
X60414Y-27449D01*
X60458Y-27356D01*
X60483Y-27256D01*
X60488Y-27153D01*
X60488Y-34989D01*
X60448Y-34989D01*
X60448Y-29395D01*
X60430Y-29305D01*
X60395Y-29220D01*
X60344Y-29144D01*
X60280Y-29079D01*
X60252Y-29059D01*
X60252Y-27543D01*
X59961Y-27252D01*
X59670Y-27543D01*
X59693Y-27634D01*
X59786Y-27678D01*
X59886Y-27703D01*
X59989Y-27708D01*
X60090Y-27692D01*
X60187Y-27658D01*
X60229Y-27634D01*
X60252Y-27543D01*
X60252Y-29059D01*
X60204Y-29027D01*
X60119Y-28992D01*
X60029Y-28973D01*
X59937Y-28973D01*
X59847Y-28990D01*
X59762Y-29024D01*
X59685Y-29075D01*
X59620Y-29139D01*
X59568Y-29215D01*
X59532Y-29299D01*
X59513Y-29389D01*
X59511Y-29480D01*
X59528Y-29571D01*
X59562Y-29656D01*
X59612Y-29733D01*
X59675Y-29799D01*
X59751Y-29852D01*
X59835Y-29888D01*
X59924Y-29908D01*
X60016Y-29910D01*
X60107Y-29894D01*
X60192Y-29861D01*
X60270Y-29811D01*
X60336Y-29748D01*
X60389Y-29673D01*
X60426Y-29589D01*
X60447Y-29500D01*
X60448Y-29395D01*
X60448Y-34989D01*
X60447Y-34989D01*
X60447Y-30759D01*
X60447Y-30726D01*
X60447Y-30125D01*
X60441Y-30093D01*
X60428Y-30063D01*
X60410Y-30035D01*
X60387Y-30012D01*
X60360Y-29994D01*
X60330Y-29981D01*
X60298Y-29974D01*
X60265Y-29974D01*
X59664Y-29974D01*
X59632Y-29980D01*
X59602Y-29993D01*
X59574Y-30011D01*
X59551Y-30034D01*
X59533Y-30061D01*
X59520Y-30091D01*
X59513Y-30123D01*
X59513Y-30156D01*
X59513Y-30757D01*
X59519Y-30789D01*
X59532Y-30819D01*
X59550Y-30847D01*
X59573Y-30870D01*
X59600Y-30888D01*
X59630Y-30901D01*
X59662Y-30908D01*
X59695Y-30908D01*
X60296Y-30908D01*
X60328Y-30902D01*
X60358Y-30889D01*
X60386Y-30871D01*
X60409Y-30848D01*
X60427Y-30821D01*
X60440Y-30791D01*
X60447Y-30759D01*
X60447Y-34989D01*
X59499Y-34989D01*
X59499Y-27433D01*
X59508Y-27449D01*
X59599Y-27472D01*
X59890Y-27181D01*
X59599Y-26890D01*
X59508Y-26913D01*
X59499Y-26932D01*
X59499Y-16192D01*
X66485Y-16192D01*
X66485Y-18928D01*
X66303Y-18928D01*
X66303Y-17912D01*
X66283Y-17737D01*
X66230Y-17569D01*
X66159Y-17436D01*
X66030Y-17367D01*
X65959Y-17438D01*
X65959Y-17296D01*
X65890Y-17167D01*
X65733Y-17086D01*
X65564Y-17038D01*
X65388Y-17023D01*
X65213Y-17043D01*
X65045Y-17096D01*
X64912Y-17167D01*
X64843Y-17296D01*
X65401Y-17854D01*
X65959Y-17296D01*
X65959Y-17438D01*
X65472Y-17925D01*
X66030Y-18483D01*
X66159Y-18414D01*
X66240Y-18257D01*
X66288Y-18088D01*
X66303Y-17912D01*
X66303Y-18928D01*
X65959Y-18928D01*
X65959Y-18554D01*
X65401Y-17996D01*
X65330Y-18067D01*
X65330Y-17925D01*
X64772Y-17367D01*
X64643Y-17436D01*
X64562Y-17593D01*
X64514Y-17762D01*
X64499Y-17938D01*
X64519Y-18113D01*
X64572Y-18281D01*
X64643Y-18414D01*
X64772Y-18483D01*
X65330Y-17925D01*
X65330Y-18067D01*
X64843Y-18554D01*
X64912Y-18683D01*
X65069Y-18764D01*
X65238Y-18812D01*
X65414Y-18827D01*
X65589Y-18807D01*
X65757Y-18754D01*
X65890Y-18683D01*
X65959Y-18554D01*
X65959Y-18928D01*
X65497Y-18928D01*
X65497Y-21032D01*
X66485Y-21032D01*
X66485Y-26207D01*
X66477Y-26193D01*
X66393Y-26171D01*
X66393Y-24740D01*
X66377Y-24639D01*
X66343Y-24542D01*
X66319Y-24500D01*
X66308Y-24497D01*
X66308Y-22061D01*
X66308Y-22028D01*
X66308Y-21477D01*
X66302Y-21445D01*
X66289Y-21415D01*
X66271Y-21387D01*
X66248Y-21364D01*
X66221Y-21346D01*
X66191Y-21333D01*
X66159Y-21326D01*
X66126Y-21326D01*
X65575Y-21326D01*
X65543Y-21332D01*
X65513Y-21345D01*
X65485Y-21363D01*
X65462Y-21386D01*
X65444Y-21413D01*
X65431Y-21443D01*
X65424Y-21475D01*
X65424Y-21508D01*
X65424Y-22059D01*
X65430Y-22091D01*
X65443Y-22121D01*
X65461Y-22149D01*
X65484Y-22172D01*
X65511Y-22190D01*
X65541Y-22203D01*
X65573Y-22210D01*
X65606Y-22210D01*
X66157Y-22210D01*
X66189Y-22204D01*
X66219Y-22191D01*
X66247Y-22173D01*
X66270Y-22150D01*
X66288Y-22123D01*
X66301Y-22093D01*
X66308Y-22061D01*
X66308Y-24497D01*
X66228Y-24477D01*
X66157Y-24548D01*
X66157Y-24406D01*
X66134Y-24315D01*
X66041Y-24271D01*
X65941Y-24246D01*
X65838Y-24241D01*
X65737Y-24257D01*
X65640Y-24291D01*
X65598Y-24315D01*
X65575Y-24406D01*
X65866Y-24697D01*
X66157Y-24406D01*
X66157Y-24548D01*
X65937Y-24768D01*
X66228Y-25059D01*
X66319Y-25036D01*
X66363Y-24943D01*
X66388Y-24843D01*
X66393Y-24740D01*
X66393Y-26171D01*
X66386Y-26170D01*
X66315Y-26241D01*
X66315Y-26099D01*
X66292Y-26008D01*
X66199Y-25964D01*
X66157Y-25953D01*
X66157Y-25130D01*
X65866Y-24839D01*
X65795Y-24910D01*
X65795Y-24768D01*
X65504Y-24477D01*
X65413Y-24500D01*
X65369Y-24593D01*
X65344Y-24693D01*
X65339Y-24796D01*
X65355Y-24897D01*
X65389Y-24994D01*
X65413Y-25036D01*
X65504Y-25059D01*
X65795Y-24768D01*
X65795Y-24910D01*
X65575Y-25130D01*
X65598Y-25221D01*
X65691Y-25265D01*
X65791Y-25290D01*
X65894Y-25295D01*
X65995Y-25279D01*
X66092Y-25245D01*
X66134Y-25221D01*
X66157Y-25130D01*
X66157Y-25953D01*
X66099Y-25939D01*
X65996Y-25934D01*
X65895Y-25950D01*
X65798Y-25984D01*
X65756Y-26008D01*
X65733Y-26099D01*
X66024Y-26390D01*
X66315Y-26099D01*
X66315Y-26241D01*
X66095Y-26461D01*
X66386Y-26752D01*
X66477Y-26729D01*
X66485Y-26712D01*
X66485Y-34989D01*
M02*
