G04 (created by PCBNEW-RS274X (2011-nov-30)-testing) date Mon 05 Mar 2012 05:05:37 PM PST*
G01*
G70*
G90*
%MOIN*%
G04 Gerber Fmt 3.4, Leading zero omitted, Abs format*
%FSLAX34Y34*%
G04 APERTURE LIST*
%ADD10C,0.006000*%
%ADD11C,0.015000*%
%ADD12R,0.060000X0.060000*%
%ADD13C,0.060000*%
%ADD14C,0.055000*%
%ADD15R,0.055000X0.055000*%
%ADD16C,0.055100*%
%ADD17C,0.129900*%
%ADD18C,0.008000*%
%ADD19C,0.011800*%
%ADD20C,0.010000*%
G04 APERTURE END LIST*
G54D10*
G54D11*
X66929Y-15748D02*
X59055Y-15748D01*
X66929Y-35433D02*
X66929Y-15748D01*
X59055Y-35433D02*
X66929Y-35433D01*
X59055Y-15748D02*
X59055Y-35433D01*
G54D12*
X59980Y-30441D03*
G54D13*
X59980Y-29441D03*
G54D14*
X59961Y-25181D03*
X59961Y-27181D03*
X66024Y-28461D03*
X66024Y-26461D03*
G54D15*
X65866Y-21768D03*
G54D14*
X65866Y-24768D03*
G54D15*
X61555Y-21787D03*
G54D14*
X61555Y-24787D03*
X60158Y-23158D03*
X60158Y-21791D03*
X64449Y-23158D03*
X64449Y-21791D03*
X62953Y-23158D03*
X62953Y-21791D03*
G54D15*
X64512Y-26433D03*
G54D14*
X63512Y-26433D03*
X62512Y-26433D03*
X61512Y-26433D03*
X61512Y-29433D03*
X62512Y-29433D03*
X63512Y-29433D03*
X64512Y-29433D03*
G54D16*
X62539Y-19783D03*
X63523Y-19783D03*
X63523Y-18996D03*
X62539Y-18996D03*
G54D17*
X65401Y-17925D03*
X60661Y-17925D03*
G54D12*
X63992Y-32965D03*
G54D13*
X63992Y-33965D03*
X62992Y-32965D03*
X62992Y-33965D03*
X61992Y-32965D03*
X61992Y-33965D03*
G54D18*
X63992Y-32965D02*
X63992Y-32083D01*
X62512Y-30603D02*
X62512Y-29433D01*
X63992Y-32083D02*
X62512Y-30603D01*
X61260Y-34409D02*
X61438Y-34587D01*
X61508Y-31405D02*
X61260Y-31653D01*
X61512Y-29433D02*
X61512Y-30882D01*
X61508Y-30886D02*
X61508Y-31405D01*
X61512Y-30882D02*
X61508Y-30886D01*
X61260Y-31653D02*
X61260Y-34409D01*
X62992Y-34468D02*
X62992Y-33965D01*
X62873Y-34587D02*
X62992Y-34468D01*
X61438Y-34587D02*
X62873Y-34587D01*
X63721Y-18996D02*
X64449Y-19724D01*
X64449Y-21791D02*
X65843Y-21791D01*
X64449Y-19724D02*
X64449Y-21791D01*
X63523Y-18996D02*
X63721Y-18996D01*
X65843Y-21791D02*
X65866Y-21768D01*
G54D19*
X59980Y-30441D02*
X59980Y-34133D01*
X59980Y-34133D02*
X60729Y-34882D01*
X63992Y-34630D02*
X63992Y-33965D01*
X63740Y-34882D02*
X63992Y-34630D01*
X60729Y-34882D02*
X63740Y-34882D01*
G54D18*
X62953Y-21791D02*
X61559Y-21791D01*
X63523Y-21693D02*
X63425Y-21791D01*
X61559Y-21791D02*
X61555Y-21787D01*
X61551Y-21791D02*
X61555Y-21787D01*
X60158Y-21791D02*
X61551Y-21791D01*
X63523Y-19783D02*
X63523Y-21693D01*
X63425Y-21791D02*
X62953Y-21791D01*
X62512Y-25303D02*
X62512Y-26433D01*
X62953Y-23158D02*
X62953Y-24862D01*
X62953Y-24862D02*
X62512Y-25303D01*
X63512Y-25169D02*
X63512Y-26433D01*
X64449Y-23158D02*
X64449Y-24232D01*
X64449Y-24232D02*
X63512Y-25169D01*
G54D19*
X66024Y-28838D02*
X65429Y-29433D01*
X60496Y-25181D02*
X60709Y-25394D01*
X60480Y-29441D02*
X61260Y-28661D01*
X59980Y-29441D02*
X60480Y-29441D01*
X59961Y-25181D02*
X60496Y-25181D01*
X66024Y-28461D02*
X66024Y-28838D01*
X65429Y-29433D02*
X64512Y-29433D01*
X60709Y-27815D02*
X59980Y-28544D01*
X59980Y-28544D02*
X59980Y-29441D01*
X60709Y-25394D02*
X60709Y-27815D01*
X61260Y-28661D02*
X64291Y-28661D01*
X64512Y-28882D02*
X64512Y-29433D01*
X64291Y-28661D02*
X64512Y-28882D01*
G54D10*
G36*
X66485Y-34989D02*
X66467Y-34989D01*
X66467Y-28418D01*
X66450Y-28333D01*
X66417Y-28252D01*
X66369Y-28180D01*
X66315Y-28125D01*
X66315Y-26823D01*
X66024Y-26532D01*
X65953Y-26603D01*
X65953Y-26461D01*
X65662Y-26170D01*
X65571Y-26193D01*
X65527Y-26286D01*
X65502Y-26386D01*
X65497Y-26489D01*
X65513Y-26590D01*
X65547Y-26687D01*
X65571Y-26729D01*
X65662Y-26752D01*
X65953Y-26461D01*
X65953Y-26603D01*
X65733Y-26823D01*
X65756Y-26914D01*
X65849Y-26958D01*
X65949Y-26983D01*
X66052Y-26988D01*
X66153Y-26972D01*
X66250Y-26938D01*
X66292Y-26914D01*
X66315Y-26823D01*
X66315Y-28125D01*
X66308Y-28118D01*
X66236Y-28070D01*
X66156Y-28036D01*
X66071Y-28018D01*
X65984Y-28018D01*
X65899Y-28034D01*
X65818Y-28066D01*
X65745Y-28114D01*
X65683Y-28175D01*
X65634Y-28246D01*
X65600Y-28326D01*
X65582Y-28411D01*
X65580Y-28498D01*
X65596Y-28583D01*
X65628Y-28664D01*
X65675Y-28737D01*
X65735Y-28800D01*
X65738Y-28802D01*
X65334Y-29206D01*
X64954Y-29206D01*
X64954Y-26726D01*
X64954Y-26693D01*
X64954Y-26142D01*
X64948Y-26110D01*
X64935Y-26080D01*
X64917Y-26052D01*
X64894Y-26029D01*
X64892Y-26027D01*
X64892Y-23115D01*
X64875Y-23030D01*
X64842Y-22949D01*
X64794Y-22877D01*
X64733Y-22815D01*
X64661Y-22767D01*
X64581Y-22733D01*
X64496Y-22715D01*
X64409Y-22715D01*
X64324Y-22731D01*
X64243Y-22763D01*
X64170Y-22811D01*
X64108Y-22872D01*
X64059Y-22943D01*
X64025Y-23023D01*
X64007Y-23108D01*
X64005Y-23195D01*
X64021Y-23280D01*
X64053Y-23361D01*
X64100Y-23434D01*
X64160Y-23497D01*
X64231Y-23546D01*
X64241Y-23550D01*
X64241Y-24146D01*
X63396Y-24990D01*
X63396Y-23115D01*
X63379Y-23030D01*
X63346Y-22949D01*
X63298Y-22877D01*
X63237Y-22815D01*
X63165Y-22767D01*
X63085Y-22733D01*
X63000Y-22715D01*
X62913Y-22715D01*
X62828Y-22731D01*
X62747Y-22763D01*
X62674Y-22811D01*
X62612Y-22872D01*
X62563Y-22943D01*
X62529Y-23023D01*
X62511Y-23108D01*
X62509Y-23195D01*
X62525Y-23280D01*
X62557Y-23361D01*
X62604Y-23434D01*
X62664Y-23497D01*
X62735Y-23546D01*
X62745Y-23550D01*
X62745Y-24775D01*
X62370Y-25150D01*
X62366Y-25154D01*
X62340Y-25185D01*
X62321Y-25221D01*
X62320Y-25221D01*
X62320Y-25223D01*
X62308Y-25262D01*
X62303Y-25302D01*
X62304Y-25310D01*
X62304Y-26039D01*
X62233Y-26086D01*
X62171Y-26147D01*
X62122Y-26218D01*
X62088Y-26298D01*
X62082Y-26326D01*
X62082Y-24759D01*
X62066Y-24658D01*
X62032Y-24561D01*
X62008Y-24519D01*
X61917Y-24496D01*
X61846Y-24567D01*
X61846Y-24425D01*
X61823Y-24334D01*
X61730Y-24290D01*
X61630Y-24265D01*
X61527Y-24260D01*
X61426Y-24276D01*
X61329Y-24310D01*
X61287Y-24334D01*
X61264Y-24425D01*
X61555Y-24716D01*
X61846Y-24425D01*
X61846Y-24567D01*
X61626Y-24787D01*
X61917Y-25078D01*
X62008Y-25055D01*
X62052Y-24962D01*
X62077Y-24862D01*
X62082Y-24759D01*
X62082Y-26326D01*
X62070Y-26383D01*
X62068Y-26470D01*
X62084Y-26555D01*
X62116Y-26636D01*
X62163Y-26709D01*
X62223Y-26772D01*
X62294Y-26821D01*
X62374Y-26856D01*
X62459Y-26875D01*
X62546Y-26877D01*
X62631Y-26862D01*
X62712Y-26830D01*
X62786Y-26784D01*
X62849Y-26724D01*
X62899Y-26653D01*
X62934Y-26574D01*
X62954Y-26489D01*
X62955Y-26390D01*
X62938Y-26305D01*
X62905Y-26224D01*
X62857Y-26152D01*
X62796Y-26090D01*
X62724Y-26042D01*
X62720Y-26040D01*
X62720Y-25389D01*
X63098Y-25011D01*
X63099Y-25011D01*
X63099Y-25010D01*
X63100Y-25010D01*
X63102Y-25007D01*
X63125Y-24980D01*
X63125Y-24978D01*
X63144Y-24944D01*
X63144Y-24942D01*
X63156Y-24905D01*
X63156Y-24903D01*
X63161Y-24865D01*
X63161Y-24863D01*
X63161Y-24862D01*
X63161Y-23550D01*
X63227Y-23509D01*
X63290Y-23449D01*
X63340Y-23378D01*
X63375Y-23299D01*
X63395Y-23214D01*
X63396Y-23115D01*
X63396Y-24990D01*
X63370Y-25016D01*
X63366Y-25020D01*
X63340Y-25051D01*
X63321Y-25087D01*
X63320Y-25087D01*
X63320Y-25089D01*
X63308Y-25128D01*
X63303Y-25168D01*
X63304Y-25176D01*
X63304Y-26039D01*
X63233Y-26086D01*
X63171Y-26147D01*
X63122Y-26218D01*
X63088Y-26298D01*
X63070Y-26383D01*
X63068Y-26470D01*
X63084Y-26555D01*
X63116Y-26636D01*
X63163Y-26709D01*
X63223Y-26772D01*
X63294Y-26821D01*
X63374Y-26856D01*
X63459Y-26875D01*
X63546Y-26877D01*
X63631Y-26862D01*
X63712Y-26830D01*
X63786Y-26784D01*
X63849Y-26724D01*
X63899Y-26653D01*
X63934Y-26574D01*
X63954Y-26489D01*
X63955Y-26390D01*
X63938Y-26305D01*
X63905Y-26224D01*
X63857Y-26152D01*
X63796Y-26090D01*
X63724Y-26042D01*
X63720Y-26040D01*
X63720Y-25255D01*
X64590Y-24384D01*
X64595Y-24381D01*
X64596Y-24379D01*
X64621Y-24350D01*
X64621Y-24348D01*
X64640Y-24314D01*
X64640Y-24313D01*
X64641Y-24312D01*
X64652Y-24275D01*
X64653Y-24273D01*
X64657Y-24235D01*
X64658Y-24233D01*
X64657Y-24232D01*
X64657Y-24224D01*
X64657Y-23550D01*
X64723Y-23509D01*
X64786Y-23449D01*
X64836Y-23378D01*
X64871Y-23299D01*
X64891Y-23214D01*
X64892Y-23115D01*
X64892Y-26027D01*
X64867Y-26011D01*
X64837Y-25998D01*
X64805Y-25991D01*
X64772Y-25991D01*
X64221Y-25991D01*
X64189Y-25997D01*
X64159Y-26010D01*
X64131Y-26028D01*
X64108Y-26051D01*
X64090Y-26078D01*
X64077Y-26108D01*
X64070Y-26140D01*
X64070Y-26173D01*
X64070Y-26724D01*
X64076Y-26756D01*
X64089Y-26786D01*
X64107Y-26814D01*
X64130Y-26837D01*
X64157Y-26855D01*
X64187Y-26868D01*
X64219Y-26875D01*
X64252Y-26875D01*
X64803Y-26875D01*
X64835Y-26869D01*
X64865Y-26856D01*
X64893Y-26838D01*
X64916Y-26815D01*
X64934Y-26788D01*
X64947Y-26758D01*
X64954Y-26726D01*
X64954Y-29206D01*
X64893Y-29206D01*
X64857Y-29152D01*
X64796Y-29090D01*
X64739Y-29052D01*
X64739Y-28884D01*
X64739Y-28882D01*
X64735Y-28838D01*
X64722Y-28797D01*
X64722Y-28795D01*
X64702Y-28758D01*
X64701Y-28756D01*
X64680Y-28730D01*
X64674Y-28723D01*
X64673Y-28722D01*
X64672Y-28721D01*
X64453Y-28502D01*
X64452Y-28500D01*
X64418Y-28472D01*
X64381Y-28452D01*
X64380Y-28452D01*
X64379Y-28451D01*
X64378Y-28451D01*
X64336Y-28438D01*
X64302Y-28434D01*
X64294Y-28434D01*
X64292Y-28434D01*
X64291Y-28434D01*
X62039Y-28434D01*
X62039Y-26405D01*
X62023Y-26304D01*
X61989Y-26207D01*
X61965Y-26165D01*
X61874Y-26142D01*
X61846Y-26170D01*
X61846Y-25149D01*
X61555Y-24858D01*
X61484Y-24929D01*
X61484Y-24787D01*
X61193Y-24496D01*
X61102Y-24519D01*
X61058Y-24612D01*
X61033Y-24712D01*
X61028Y-24815D01*
X61044Y-24916D01*
X61078Y-25013D01*
X61102Y-25055D01*
X61193Y-25078D01*
X61484Y-24787D01*
X61484Y-24929D01*
X61264Y-25149D01*
X61287Y-25240D01*
X61380Y-25284D01*
X61480Y-25309D01*
X61583Y-25314D01*
X61684Y-25298D01*
X61781Y-25264D01*
X61823Y-25240D01*
X61846Y-25149D01*
X61846Y-26170D01*
X61803Y-26213D01*
X61803Y-26071D01*
X61780Y-25980D01*
X61687Y-25936D01*
X61587Y-25911D01*
X61484Y-25906D01*
X61383Y-25922D01*
X61286Y-25956D01*
X61244Y-25980D01*
X61221Y-26071D01*
X61512Y-26362D01*
X61803Y-26071D01*
X61803Y-26213D01*
X61583Y-26433D01*
X61874Y-26724D01*
X61965Y-26701D01*
X62009Y-26608D01*
X62034Y-26508D01*
X62039Y-26405D01*
X62039Y-28434D01*
X61803Y-28434D01*
X61803Y-26795D01*
X61512Y-26504D01*
X61441Y-26575D01*
X61441Y-26433D01*
X61150Y-26142D01*
X61059Y-26165D01*
X61015Y-26258D01*
X60990Y-26358D01*
X60985Y-26461D01*
X61001Y-26562D01*
X61035Y-26659D01*
X61059Y-26701D01*
X61150Y-26724D01*
X61441Y-26433D01*
X61441Y-26575D01*
X61221Y-26795D01*
X61244Y-26886D01*
X61337Y-26930D01*
X61437Y-26955D01*
X61540Y-26960D01*
X61641Y-26944D01*
X61738Y-26910D01*
X61780Y-26886D01*
X61803Y-26795D01*
X61803Y-28434D01*
X61262Y-28434D01*
X61260Y-28434D01*
X61216Y-28438D01*
X61192Y-28445D01*
X61175Y-28450D01*
X61173Y-28450D01*
X61173Y-28451D01*
X61134Y-28472D01*
X61114Y-28488D01*
X61102Y-28498D01*
X61100Y-28500D01*
X61099Y-28501D01*
X60388Y-29210D01*
X60344Y-29144D01*
X60280Y-29079D01*
X60207Y-29029D01*
X60207Y-28638D01*
X60868Y-27977D01*
X60869Y-27976D01*
X60896Y-27943D01*
X60897Y-27942D01*
X60906Y-27925D01*
X60918Y-27904D01*
X60918Y-27903D01*
X60931Y-27862D01*
X60931Y-27860D01*
X60936Y-27818D01*
X60936Y-27815D01*
X60936Y-25396D01*
X60936Y-25394D01*
X60932Y-25352D01*
X60932Y-25350D01*
X60924Y-25326D01*
X60920Y-25309D01*
X60919Y-25307D01*
X60899Y-25270D01*
X60898Y-25268D01*
X60877Y-25242D01*
X60871Y-25235D01*
X60870Y-25234D01*
X60869Y-25233D01*
X60658Y-25022D01*
X60657Y-25020D01*
X60623Y-24992D01*
X60601Y-24980D01*
X60601Y-23115D01*
X60584Y-23030D01*
X60551Y-22949D01*
X60503Y-22877D01*
X60442Y-22815D01*
X60370Y-22767D01*
X60290Y-22733D01*
X60205Y-22715D01*
X60118Y-22715D01*
X60033Y-22731D01*
X59952Y-22763D01*
X59879Y-22811D01*
X59817Y-22872D01*
X59768Y-22943D01*
X59734Y-23023D01*
X59716Y-23108D01*
X59714Y-23195D01*
X59730Y-23280D01*
X59762Y-23361D01*
X59809Y-23434D01*
X59869Y-23497D01*
X59940Y-23546D01*
X60020Y-23581D01*
X60105Y-23600D01*
X60192Y-23602D01*
X60277Y-23587D01*
X60358Y-23555D01*
X60432Y-23509D01*
X60495Y-23449D01*
X60545Y-23378D01*
X60580Y-23299D01*
X60600Y-23214D01*
X60601Y-23115D01*
X60601Y-24980D01*
X60586Y-24972D01*
X60585Y-24972D01*
X60584Y-24971D01*
X60583Y-24971D01*
X60541Y-24958D01*
X60507Y-24954D01*
X60499Y-24954D01*
X60497Y-24954D01*
X60496Y-24954D01*
X60342Y-24954D01*
X60306Y-24900D01*
X60245Y-24838D01*
X60173Y-24790D01*
X60093Y-24756D01*
X60008Y-24738D01*
X59921Y-24738D01*
X59836Y-24754D01*
X59755Y-24786D01*
X59682Y-24834D01*
X59620Y-24895D01*
X59571Y-24966D01*
X59537Y-25046D01*
X59519Y-25131D01*
X59517Y-25218D01*
X59533Y-25303D01*
X59565Y-25384D01*
X59612Y-25457D01*
X59672Y-25520D01*
X59743Y-25569D01*
X59823Y-25604D01*
X59908Y-25623D01*
X59995Y-25625D01*
X60080Y-25610D01*
X60161Y-25578D01*
X60235Y-25532D01*
X60298Y-25472D01*
X60343Y-25408D01*
X60401Y-25408D01*
X60482Y-25488D01*
X60482Y-27115D01*
X60472Y-27052D01*
X60438Y-26955D01*
X60414Y-26913D01*
X60323Y-26890D01*
X60252Y-26961D01*
X60252Y-26819D01*
X60229Y-26728D01*
X60136Y-26684D01*
X60036Y-26659D01*
X59933Y-26654D01*
X59832Y-26670D01*
X59735Y-26704D01*
X59693Y-26728D01*
X59670Y-26819D01*
X59961Y-27110D01*
X60252Y-26819D01*
X60252Y-26961D01*
X60032Y-27181D01*
X60323Y-27472D01*
X60414Y-27449D01*
X60458Y-27356D01*
X60482Y-27260D01*
X60482Y-27720D01*
X60252Y-27950D01*
X60252Y-27543D01*
X59961Y-27252D01*
X59670Y-27543D01*
X59693Y-27634D01*
X59786Y-27678D01*
X59886Y-27703D01*
X59989Y-27708D01*
X60090Y-27692D01*
X60187Y-27658D01*
X60229Y-27634D01*
X60252Y-27543D01*
X60252Y-27950D01*
X59819Y-28383D01*
X59791Y-28417D01*
X59771Y-28453D01*
X59771Y-28455D01*
X59770Y-28455D01*
X59770Y-28457D01*
X59757Y-28499D01*
X59753Y-28533D01*
X59753Y-28541D01*
X59753Y-28543D01*
X59753Y-28544D01*
X59753Y-29029D01*
X59685Y-29075D01*
X59620Y-29139D01*
X59568Y-29215D01*
X59532Y-29299D01*
X59513Y-29389D01*
X59511Y-29480D01*
X59528Y-29571D01*
X59562Y-29656D01*
X59612Y-29733D01*
X59675Y-29799D01*
X59751Y-29852D01*
X59835Y-29888D01*
X59924Y-29908D01*
X60016Y-29910D01*
X60107Y-29894D01*
X60192Y-29861D01*
X60270Y-29811D01*
X60336Y-29748D01*
X60389Y-29673D01*
X60391Y-29668D01*
X60478Y-29668D01*
X60480Y-29668D01*
X60522Y-29664D01*
X60524Y-29664D01*
X60548Y-29656D01*
X60565Y-29652D01*
X60566Y-29651D01*
X60567Y-29651D01*
X60604Y-29631D01*
X60606Y-29630D01*
X60626Y-29613D01*
X60638Y-29604D01*
X60640Y-29602D01*
X60641Y-29602D01*
X61354Y-28888D01*
X64196Y-28888D01*
X64285Y-28976D01*
X64285Y-29051D01*
X64233Y-29086D01*
X64171Y-29147D01*
X64122Y-29218D01*
X64088Y-29298D01*
X64070Y-29383D01*
X64068Y-29470D01*
X64084Y-29555D01*
X64116Y-29636D01*
X64163Y-29709D01*
X64223Y-29772D01*
X64294Y-29821D01*
X64374Y-29856D01*
X64459Y-29875D01*
X64546Y-29877D01*
X64631Y-29862D01*
X64712Y-29830D01*
X64786Y-29784D01*
X64849Y-29724D01*
X64894Y-29660D01*
X65427Y-29660D01*
X65429Y-29660D01*
X65471Y-29656D01*
X65473Y-29656D01*
X65497Y-29648D01*
X65514Y-29644D01*
X65515Y-29643D01*
X65516Y-29643D01*
X65553Y-29623D01*
X65555Y-29622D01*
X65575Y-29605D01*
X65587Y-29596D01*
X65589Y-29594D01*
X65590Y-29594D01*
X66183Y-29000D01*
X66184Y-28999D01*
X66211Y-28966D01*
X66212Y-28965D01*
X66229Y-28934D01*
X66233Y-28927D01*
X66233Y-28926D01*
X66234Y-28925D01*
X66238Y-28909D01*
X66246Y-28885D01*
X66246Y-28883D01*
X66250Y-28841D01*
X66251Y-28841D01*
X66298Y-28812D01*
X66361Y-28752D01*
X66411Y-28681D01*
X66446Y-28602D01*
X66466Y-28517D01*
X66467Y-28418D01*
X66467Y-34989D01*
X63954Y-34989D01*
X64151Y-34792D01*
X64152Y-34791D01*
X64179Y-34758D01*
X64181Y-34757D01*
X64200Y-34720D01*
X64201Y-34719D01*
X64201Y-34718D01*
X64202Y-34717D01*
X64206Y-34701D01*
X64214Y-34677D01*
X64214Y-34675D01*
X64219Y-34633D01*
X64219Y-34631D01*
X64219Y-34630D01*
X64219Y-34375D01*
X64282Y-34335D01*
X64348Y-34272D01*
X64401Y-34197D01*
X64438Y-34113D01*
X64459Y-34024D01*
X64460Y-33919D01*
X64459Y-33914D01*
X64459Y-33283D01*
X64459Y-33250D01*
X64459Y-32649D01*
X64453Y-32617D01*
X64440Y-32587D01*
X64422Y-32559D01*
X64399Y-32536D01*
X64372Y-32518D01*
X64342Y-32505D01*
X64310Y-32498D01*
X64277Y-32498D01*
X64200Y-32498D01*
X64200Y-32093D01*
X64201Y-32085D01*
X64200Y-32083D01*
X64197Y-32045D01*
X64196Y-32043D01*
X64185Y-32006D01*
X64184Y-32004D01*
X64166Y-31970D01*
X64165Y-31968D01*
X64141Y-31938D01*
X64140Y-31936D01*
X64135Y-31932D01*
X63955Y-31752D01*
X63955Y-29390D01*
X63938Y-29305D01*
X63905Y-29224D01*
X63857Y-29152D01*
X63796Y-29090D01*
X63724Y-29042D01*
X63644Y-29008D01*
X63559Y-28990D01*
X63472Y-28990D01*
X63387Y-29006D01*
X63306Y-29038D01*
X63233Y-29086D01*
X63171Y-29147D01*
X63122Y-29218D01*
X63088Y-29298D01*
X63070Y-29383D01*
X63068Y-29470D01*
X63084Y-29555D01*
X63116Y-29636D01*
X63163Y-29709D01*
X63223Y-29772D01*
X63294Y-29821D01*
X63374Y-29856D01*
X63459Y-29875D01*
X63546Y-29877D01*
X63631Y-29862D01*
X63712Y-29830D01*
X63786Y-29784D01*
X63849Y-29724D01*
X63899Y-29653D01*
X63934Y-29574D01*
X63954Y-29489D01*
X63955Y-29390D01*
X63955Y-31752D01*
X62720Y-30517D01*
X62720Y-29825D01*
X62786Y-29784D01*
X62849Y-29724D01*
X62899Y-29653D01*
X62934Y-29574D01*
X62954Y-29489D01*
X62955Y-29390D01*
X62938Y-29305D01*
X62905Y-29224D01*
X62857Y-29152D01*
X62796Y-29090D01*
X62724Y-29042D01*
X62644Y-29008D01*
X62559Y-28990D01*
X62472Y-28990D01*
X62387Y-29006D01*
X62306Y-29038D01*
X62233Y-29086D01*
X62171Y-29147D01*
X62122Y-29218D01*
X62088Y-29298D01*
X62070Y-29383D01*
X62068Y-29470D01*
X62084Y-29555D01*
X62116Y-29636D01*
X62163Y-29709D01*
X62223Y-29772D01*
X62294Y-29821D01*
X62304Y-29825D01*
X62304Y-30593D01*
X62303Y-30601D01*
X62307Y-30641D01*
X62319Y-30680D01*
X62319Y-30681D01*
X62320Y-30682D01*
X62338Y-30716D01*
X62339Y-30718D01*
X62363Y-30748D01*
X62364Y-30750D01*
X62365Y-30750D01*
X62368Y-30753D01*
X63784Y-32169D01*
X63784Y-32498D01*
X63676Y-32498D01*
X63644Y-32504D01*
X63614Y-32517D01*
X63586Y-32535D01*
X63563Y-32558D01*
X63545Y-32585D01*
X63532Y-32615D01*
X63525Y-32647D01*
X63525Y-32680D01*
X63525Y-33281D01*
X63531Y-33313D01*
X63544Y-33343D01*
X63562Y-33371D01*
X63585Y-33394D01*
X63612Y-33412D01*
X63642Y-33425D01*
X63674Y-33432D01*
X63707Y-33432D01*
X64308Y-33432D01*
X64340Y-33426D01*
X64370Y-33413D01*
X64398Y-33395D01*
X64421Y-33372D01*
X64439Y-33345D01*
X64452Y-33315D01*
X64459Y-33283D01*
X64459Y-33914D01*
X64442Y-33829D01*
X64407Y-33744D01*
X64356Y-33668D01*
X64292Y-33603D01*
X64216Y-33551D01*
X64131Y-33516D01*
X64041Y-33497D01*
X63949Y-33497D01*
X63859Y-33514D01*
X63774Y-33548D01*
X63697Y-33599D01*
X63632Y-33663D01*
X63580Y-33739D01*
X63544Y-33823D01*
X63525Y-33913D01*
X63523Y-34004D01*
X63540Y-34095D01*
X63574Y-34180D01*
X63624Y-34257D01*
X63687Y-34323D01*
X63763Y-34376D01*
X63765Y-34376D01*
X63765Y-34535D01*
X63645Y-34655D01*
X63099Y-34655D01*
X63133Y-34620D01*
X63138Y-34617D01*
X63139Y-34615D01*
X63164Y-34586D01*
X63164Y-34584D01*
X63183Y-34550D01*
X63183Y-34548D01*
X63195Y-34511D01*
X63195Y-34509D01*
X63200Y-34471D01*
X63200Y-34469D01*
X63200Y-34468D01*
X63200Y-34386D01*
X63204Y-34385D01*
X63282Y-34335D01*
X63348Y-34272D01*
X63401Y-34197D01*
X63438Y-34113D01*
X63459Y-34024D01*
X63460Y-33919D01*
X63460Y-32919D01*
X63442Y-32829D01*
X63407Y-32744D01*
X63356Y-32668D01*
X63292Y-32603D01*
X63216Y-32551D01*
X63131Y-32516D01*
X63041Y-32497D01*
X62949Y-32497D01*
X62859Y-32514D01*
X62774Y-32548D01*
X62697Y-32599D01*
X62632Y-32663D01*
X62580Y-32739D01*
X62544Y-32823D01*
X62525Y-32913D01*
X62523Y-33004D01*
X62540Y-33095D01*
X62574Y-33180D01*
X62624Y-33257D01*
X62687Y-33323D01*
X62763Y-33376D01*
X62847Y-33412D01*
X62936Y-33432D01*
X63028Y-33434D01*
X63119Y-33418D01*
X63204Y-33385D01*
X63282Y-33335D01*
X63348Y-33272D01*
X63401Y-33197D01*
X63438Y-33113D01*
X63459Y-33024D01*
X63460Y-32919D01*
X63460Y-33919D01*
X63442Y-33829D01*
X63407Y-33744D01*
X63356Y-33668D01*
X63292Y-33603D01*
X63216Y-33551D01*
X63131Y-33516D01*
X63041Y-33497D01*
X62949Y-33497D01*
X62859Y-33514D01*
X62774Y-33548D01*
X62697Y-33599D01*
X62632Y-33663D01*
X62580Y-33739D01*
X62544Y-33823D01*
X62533Y-33874D01*
X62527Y-33833D01*
X62491Y-33732D01*
X62465Y-33683D01*
X62460Y-33681D01*
X62460Y-32919D01*
X62442Y-32829D01*
X62407Y-32744D01*
X62356Y-32668D01*
X62292Y-32603D01*
X62216Y-32551D01*
X62131Y-32516D01*
X62041Y-32497D01*
X61949Y-32497D01*
X61859Y-32514D01*
X61774Y-32548D01*
X61697Y-32599D01*
X61632Y-32663D01*
X61580Y-32739D01*
X61544Y-32823D01*
X61525Y-32913D01*
X61523Y-33004D01*
X61540Y-33095D01*
X61574Y-33180D01*
X61624Y-33257D01*
X61687Y-33323D01*
X61763Y-33376D01*
X61847Y-33412D01*
X61900Y-33423D01*
X61860Y-33430D01*
X61759Y-33466D01*
X61710Y-33492D01*
X61683Y-33585D01*
X61992Y-33894D01*
X62301Y-33585D01*
X62274Y-33492D01*
X62177Y-33446D01*
X62087Y-33423D01*
X62119Y-33418D01*
X62204Y-33385D01*
X62282Y-33335D01*
X62348Y-33272D01*
X62401Y-33197D01*
X62438Y-33113D01*
X62459Y-33024D01*
X62460Y-32919D01*
X62460Y-33681D01*
X62372Y-33656D01*
X62063Y-33965D01*
X62372Y-34274D01*
X62465Y-34247D01*
X62511Y-34150D01*
X62533Y-34060D01*
X62540Y-34095D01*
X62574Y-34180D01*
X62624Y-34257D01*
X62687Y-34323D01*
X62763Y-34376D01*
X62770Y-34379D01*
X62291Y-34379D01*
X62301Y-34345D01*
X61992Y-34036D01*
X61683Y-34345D01*
X61692Y-34379D01*
X61524Y-34379D01*
X61468Y-34322D01*
X61468Y-34127D01*
X61493Y-34198D01*
X61519Y-34247D01*
X61612Y-34274D01*
X61921Y-33965D01*
X61612Y-33656D01*
X61519Y-33683D01*
X61473Y-33780D01*
X61468Y-33800D01*
X61468Y-31739D01*
X61653Y-31554D01*
X61654Y-31554D01*
X61654Y-31553D01*
X61655Y-31553D01*
X61657Y-31550D01*
X61680Y-31523D01*
X61680Y-31521D01*
X61699Y-31487D01*
X61699Y-31485D01*
X61711Y-31448D01*
X61711Y-31447D01*
X61716Y-31408D01*
X61716Y-31406D01*
X61716Y-31405D01*
X61716Y-30917D01*
X61716Y-30915D01*
X61720Y-30885D01*
X61720Y-30883D01*
X61720Y-30882D01*
X61720Y-29825D01*
X61786Y-29784D01*
X61849Y-29724D01*
X61899Y-29653D01*
X61934Y-29574D01*
X61954Y-29489D01*
X61955Y-29390D01*
X61938Y-29305D01*
X61905Y-29224D01*
X61857Y-29152D01*
X61796Y-29090D01*
X61724Y-29042D01*
X61644Y-29008D01*
X61559Y-28990D01*
X61472Y-28990D01*
X61387Y-29006D01*
X61306Y-29038D01*
X61233Y-29086D01*
X61171Y-29147D01*
X61122Y-29218D01*
X61088Y-29298D01*
X61070Y-29383D01*
X61068Y-29470D01*
X61084Y-29555D01*
X61116Y-29636D01*
X61163Y-29709D01*
X61223Y-29772D01*
X61294Y-29821D01*
X61304Y-29825D01*
X61304Y-30845D01*
X61299Y-30885D01*
X61300Y-30893D01*
X61300Y-31318D01*
X61118Y-31500D01*
X61114Y-31504D01*
X61088Y-31535D01*
X61069Y-31571D01*
X61068Y-31571D01*
X61068Y-31573D01*
X61056Y-31612D01*
X61051Y-31652D01*
X61052Y-31660D01*
X61052Y-34399D01*
X61051Y-34407D01*
X61055Y-34447D01*
X61067Y-34486D01*
X61067Y-34487D01*
X61068Y-34488D01*
X61086Y-34522D01*
X61087Y-34524D01*
X61111Y-34554D01*
X61112Y-34556D01*
X61113Y-34556D01*
X61116Y-34559D01*
X61211Y-34655D01*
X60823Y-34655D01*
X60207Y-34038D01*
X60207Y-30908D01*
X60296Y-30908D01*
X60328Y-30902D01*
X60358Y-30889D01*
X60386Y-30871D01*
X60409Y-30848D01*
X60427Y-30821D01*
X60440Y-30791D01*
X60447Y-30759D01*
X60447Y-30726D01*
X60447Y-30125D01*
X60441Y-30093D01*
X60428Y-30063D01*
X60410Y-30035D01*
X60387Y-30012D01*
X60360Y-29994D01*
X60330Y-29981D01*
X60298Y-29974D01*
X60265Y-29974D01*
X59664Y-29974D01*
X59632Y-29980D01*
X59602Y-29993D01*
X59574Y-30011D01*
X59551Y-30034D01*
X59533Y-30061D01*
X59520Y-30091D01*
X59513Y-30123D01*
X59513Y-30156D01*
X59513Y-30757D01*
X59519Y-30789D01*
X59532Y-30819D01*
X59550Y-30847D01*
X59573Y-30870D01*
X59600Y-30888D01*
X59630Y-30901D01*
X59662Y-30908D01*
X59695Y-30908D01*
X59753Y-30908D01*
X59753Y-34131D01*
X59753Y-34133D01*
X59757Y-34177D01*
X59764Y-34201D01*
X59769Y-34218D01*
X59769Y-34219D01*
X59770Y-34220D01*
X59790Y-34257D01*
X59791Y-34259D01*
X59807Y-34279D01*
X59817Y-34291D01*
X59819Y-34294D01*
X60514Y-34989D01*
X59499Y-34989D01*
X59499Y-27433D01*
X59508Y-27449D01*
X59599Y-27472D01*
X59890Y-27181D01*
X59599Y-26890D01*
X59508Y-26913D01*
X59499Y-26932D01*
X59499Y-16192D01*
X66485Y-16192D01*
X66485Y-26207D01*
X66477Y-26193D01*
X66393Y-26171D01*
X66393Y-24740D01*
X66377Y-24639D01*
X66343Y-24542D01*
X66319Y-24500D01*
X66308Y-24497D01*
X66308Y-22061D01*
X66308Y-22028D01*
X66308Y-21477D01*
X66303Y-21450D01*
X66303Y-17912D01*
X66283Y-17737D01*
X66230Y-17569D01*
X66159Y-17436D01*
X66030Y-17367D01*
X65959Y-17438D01*
X65959Y-17296D01*
X65890Y-17167D01*
X65733Y-17086D01*
X65564Y-17038D01*
X65388Y-17023D01*
X65213Y-17043D01*
X65045Y-17096D01*
X64912Y-17167D01*
X64843Y-17296D01*
X65401Y-17854D01*
X65959Y-17296D01*
X65959Y-17438D01*
X65472Y-17925D01*
X66030Y-18483D01*
X66159Y-18414D01*
X66240Y-18257D01*
X66288Y-18088D01*
X66303Y-17912D01*
X66303Y-21450D01*
X66302Y-21445D01*
X66289Y-21415D01*
X66271Y-21387D01*
X66248Y-21364D01*
X66221Y-21346D01*
X66191Y-21333D01*
X66159Y-21326D01*
X66126Y-21326D01*
X65959Y-21326D01*
X65959Y-18554D01*
X65401Y-17996D01*
X65330Y-18067D01*
X65330Y-17925D01*
X64772Y-17367D01*
X64643Y-17436D01*
X64562Y-17593D01*
X64514Y-17762D01*
X64499Y-17938D01*
X64519Y-18113D01*
X64572Y-18281D01*
X64643Y-18414D01*
X64772Y-18483D01*
X65330Y-17925D01*
X65330Y-18067D01*
X64843Y-18554D01*
X64912Y-18683D01*
X65069Y-18764D01*
X65238Y-18812D01*
X65414Y-18827D01*
X65589Y-18807D01*
X65757Y-18754D01*
X65890Y-18683D01*
X65959Y-18554D01*
X65959Y-21326D01*
X65575Y-21326D01*
X65543Y-21332D01*
X65513Y-21345D01*
X65485Y-21363D01*
X65462Y-21386D01*
X65444Y-21413D01*
X65431Y-21443D01*
X65424Y-21475D01*
X65424Y-21508D01*
X65424Y-21583D01*
X64842Y-21583D01*
X64842Y-21582D01*
X64794Y-21510D01*
X64733Y-21448D01*
X64661Y-21400D01*
X64657Y-21398D01*
X64657Y-19726D01*
X64657Y-19724D01*
X64656Y-19718D01*
X64654Y-19685D01*
X64653Y-19684D01*
X64642Y-19647D01*
X64641Y-19645D01*
X64640Y-19643D01*
X64623Y-19610D01*
X64622Y-19609D01*
X64616Y-19601D01*
X64598Y-19579D01*
X64597Y-19577D01*
X64592Y-19573D01*
X63964Y-18945D01*
X63949Y-18868D01*
X63916Y-18787D01*
X63868Y-18715D01*
X63807Y-18653D01*
X63735Y-18605D01*
X63655Y-18571D01*
X63570Y-18553D01*
X63483Y-18553D01*
X63398Y-18569D01*
X63317Y-18601D01*
X63244Y-18649D01*
X63182Y-18710D01*
X63133Y-18781D01*
X63099Y-18861D01*
X63081Y-18946D01*
X63079Y-19033D01*
X63095Y-19118D01*
X63127Y-19199D01*
X63174Y-19272D01*
X63234Y-19335D01*
X63305Y-19384D01*
X63315Y-19388D01*
X63244Y-19436D01*
X63182Y-19497D01*
X63133Y-19568D01*
X63099Y-19648D01*
X63081Y-19733D01*
X63079Y-19820D01*
X63095Y-19905D01*
X63127Y-19986D01*
X63174Y-20059D01*
X63234Y-20122D01*
X63305Y-20171D01*
X63315Y-20175D01*
X63315Y-21535D01*
X63298Y-21510D01*
X63237Y-21448D01*
X63165Y-21400D01*
X63085Y-21366D01*
X63066Y-21361D01*
X63066Y-18968D01*
X63050Y-18867D01*
X63016Y-18770D01*
X62992Y-18728D01*
X62901Y-18705D01*
X62830Y-18776D01*
X62830Y-18634D01*
X62807Y-18543D01*
X62714Y-18499D01*
X62614Y-18474D01*
X62511Y-18469D01*
X62410Y-18485D01*
X62313Y-18519D01*
X62271Y-18543D01*
X62248Y-18634D01*
X62539Y-18925D01*
X62830Y-18634D01*
X62830Y-18776D01*
X62610Y-18996D01*
X62901Y-19287D01*
X62992Y-19264D01*
X63036Y-19171D01*
X63061Y-19071D01*
X63066Y-18968D01*
X63066Y-21361D01*
X63000Y-21348D01*
X62982Y-21348D01*
X62982Y-19740D01*
X62965Y-19655D01*
X62932Y-19574D01*
X62884Y-19502D01*
X62823Y-19440D01*
X62811Y-19432D01*
X62830Y-19358D01*
X62539Y-19067D01*
X62468Y-19138D01*
X62468Y-18996D01*
X62177Y-18705D01*
X62086Y-18728D01*
X62042Y-18821D01*
X62017Y-18921D01*
X62012Y-19024D01*
X62028Y-19125D01*
X62062Y-19222D01*
X62086Y-19264D01*
X62177Y-19287D01*
X62468Y-18996D01*
X62468Y-19138D01*
X62248Y-19358D01*
X62266Y-19431D01*
X62260Y-19436D01*
X62198Y-19497D01*
X62149Y-19568D01*
X62115Y-19648D01*
X62097Y-19733D01*
X62095Y-19820D01*
X62111Y-19905D01*
X62143Y-19986D01*
X62190Y-20059D01*
X62250Y-20122D01*
X62321Y-20171D01*
X62401Y-20206D01*
X62486Y-20225D01*
X62573Y-20227D01*
X62658Y-20212D01*
X62739Y-20180D01*
X62813Y-20134D01*
X62876Y-20074D01*
X62926Y-20003D01*
X62961Y-19924D01*
X62981Y-19839D01*
X62982Y-19740D01*
X62982Y-21348D01*
X62913Y-21348D01*
X62828Y-21364D01*
X62747Y-21396D01*
X62674Y-21444D01*
X62612Y-21505D01*
X62563Y-21576D01*
X62560Y-21583D01*
X61997Y-21583D01*
X61997Y-21496D01*
X61991Y-21464D01*
X61978Y-21434D01*
X61960Y-21406D01*
X61937Y-21383D01*
X61910Y-21365D01*
X61880Y-21352D01*
X61848Y-21345D01*
X61815Y-21345D01*
X61563Y-21345D01*
X61563Y-17912D01*
X61543Y-17737D01*
X61490Y-17569D01*
X61419Y-17436D01*
X61290Y-17367D01*
X61219Y-17438D01*
X61219Y-17296D01*
X61150Y-17167D01*
X60993Y-17086D01*
X60824Y-17038D01*
X60648Y-17023D01*
X60473Y-17043D01*
X60305Y-17096D01*
X60172Y-17167D01*
X60103Y-17296D01*
X60661Y-17854D01*
X61219Y-17296D01*
X61219Y-17438D01*
X60732Y-17925D01*
X61290Y-18483D01*
X61419Y-18414D01*
X61500Y-18257D01*
X61548Y-18088D01*
X61563Y-17912D01*
X61563Y-21345D01*
X61264Y-21345D01*
X61232Y-21351D01*
X61219Y-21356D01*
X61219Y-18554D01*
X60661Y-17996D01*
X60590Y-18067D01*
X60590Y-17925D01*
X60032Y-17367D01*
X59903Y-17436D01*
X59822Y-17593D01*
X59774Y-17762D01*
X59759Y-17938D01*
X59779Y-18113D01*
X59832Y-18281D01*
X59903Y-18414D01*
X60032Y-18483D01*
X60590Y-17925D01*
X60590Y-18067D01*
X60103Y-18554D01*
X60172Y-18683D01*
X60329Y-18764D01*
X60498Y-18812D01*
X60674Y-18827D01*
X60849Y-18807D01*
X61017Y-18754D01*
X61150Y-18683D01*
X61219Y-18554D01*
X61219Y-21356D01*
X61202Y-21364D01*
X61174Y-21382D01*
X61151Y-21405D01*
X61133Y-21432D01*
X61120Y-21462D01*
X61113Y-21494D01*
X61113Y-21527D01*
X61113Y-21583D01*
X60551Y-21583D01*
X60551Y-21582D01*
X60503Y-21510D01*
X60442Y-21448D01*
X60370Y-21400D01*
X60290Y-21366D01*
X60205Y-21348D01*
X60118Y-21348D01*
X60033Y-21364D01*
X59952Y-21396D01*
X59879Y-21444D01*
X59817Y-21505D01*
X59768Y-21576D01*
X59734Y-21656D01*
X59716Y-21741D01*
X59714Y-21828D01*
X59730Y-21913D01*
X59762Y-21994D01*
X59809Y-22067D01*
X59869Y-22130D01*
X59940Y-22179D01*
X60020Y-22214D01*
X60105Y-22233D01*
X60192Y-22235D01*
X60277Y-22220D01*
X60358Y-22188D01*
X60432Y-22142D01*
X60495Y-22082D01*
X60545Y-22011D01*
X60550Y-21999D01*
X61113Y-21999D01*
X61113Y-22078D01*
X61119Y-22110D01*
X61132Y-22140D01*
X61150Y-22168D01*
X61173Y-22191D01*
X61200Y-22209D01*
X61230Y-22222D01*
X61262Y-22229D01*
X61295Y-22229D01*
X61846Y-22229D01*
X61878Y-22223D01*
X61908Y-22210D01*
X61936Y-22192D01*
X61959Y-22169D01*
X61977Y-22142D01*
X61990Y-22112D01*
X61997Y-22080D01*
X61997Y-22047D01*
X61997Y-21999D01*
X62560Y-21999D01*
X62604Y-22067D01*
X62664Y-22130D01*
X62735Y-22179D01*
X62815Y-22214D01*
X62900Y-22233D01*
X62987Y-22235D01*
X63072Y-22220D01*
X63153Y-22188D01*
X63227Y-22142D01*
X63290Y-22082D01*
X63340Y-22011D01*
X63345Y-21999D01*
X63415Y-21999D01*
X63423Y-22000D01*
X63425Y-21999D01*
X63463Y-21996D01*
X63465Y-21995D01*
X63502Y-21984D01*
X63503Y-21983D01*
X63504Y-21983D01*
X63538Y-21965D01*
X63540Y-21964D01*
X63570Y-21940D01*
X63572Y-21939D01*
X63572Y-21938D01*
X63575Y-21934D01*
X63664Y-21845D01*
X63669Y-21842D01*
X63670Y-21840D01*
X63695Y-21811D01*
X63695Y-21809D01*
X63714Y-21775D01*
X63714Y-21773D01*
X63726Y-21736D01*
X63726Y-21734D01*
X63731Y-21696D01*
X63731Y-21694D01*
X63731Y-21693D01*
X63731Y-20175D01*
X63797Y-20134D01*
X63860Y-20074D01*
X63910Y-20003D01*
X63945Y-19924D01*
X63965Y-19839D01*
X63966Y-19740D01*
X63949Y-19655D01*
X63916Y-19574D01*
X63868Y-19502D01*
X63807Y-19440D01*
X63735Y-19392D01*
X63728Y-19389D01*
X63785Y-19354D01*
X64241Y-19810D01*
X64241Y-21397D01*
X64170Y-21444D01*
X64108Y-21505D01*
X64059Y-21576D01*
X64025Y-21656D01*
X64007Y-21741D01*
X64005Y-21828D01*
X64021Y-21913D01*
X64053Y-21994D01*
X64100Y-22067D01*
X64160Y-22130D01*
X64231Y-22179D01*
X64311Y-22214D01*
X64396Y-22233D01*
X64483Y-22235D01*
X64568Y-22220D01*
X64649Y-22188D01*
X64723Y-22142D01*
X64786Y-22082D01*
X64836Y-22011D01*
X64841Y-21999D01*
X65424Y-21999D01*
X65424Y-22059D01*
X65430Y-22091D01*
X65443Y-22121D01*
X65461Y-22149D01*
X65484Y-22172D01*
X65511Y-22190D01*
X65541Y-22203D01*
X65573Y-22210D01*
X65606Y-22210D01*
X66157Y-22210D01*
X66189Y-22204D01*
X66219Y-22191D01*
X66247Y-22173D01*
X66270Y-22150D01*
X66288Y-22123D01*
X66301Y-22093D01*
X66308Y-22061D01*
X66308Y-24497D01*
X66228Y-24477D01*
X66157Y-24548D01*
X66157Y-24406D01*
X66134Y-24315D01*
X66041Y-24271D01*
X65941Y-24246D01*
X65838Y-24241D01*
X65737Y-24257D01*
X65640Y-24291D01*
X65598Y-24315D01*
X65575Y-24406D01*
X65866Y-24697D01*
X66157Y-24406D01*
X66157Y-24548D01*
X65937Y-24768D01*
X66228Y-25059D01*
X66319Y-25036D01*
X66363Y-24943D01*
X66388Y-24843D01*
X66393Y-24740D01*
X66393Y-26171D01*
X66386Y-26170D01*
X66315Y-26241D01*
X66315Y-26099D01*
X66292Y-26008D01*
X66199Y-25964D01*
X66157Y-25953D01*
X66157Y-25130D01*
X65866Y-24839D01*
X65795Y-24910D01*
X65795Y-24768D01*
X65504Y-24477D01*
X65413Y-24500D01*
X65369Y-24593D01*
X65344Y-24693D01*
X65339Y-24796D01*
X65355Y-24897D01*
X65389Y-24994D01*
X65413Y-25036D01*
X65504Y-25059D01*
X65795Y-24768D01*
X65795Y-24910D01*
X65575Y-25130D01*
X65598Y-25221D01*
X65691Y-25265D01*
X65791Y-25290D01*
X65894Y-25295D01*
X65995Y-25279D01*
X66092Y-25245D01*
X66134Y-25221D01*
X66157Y-25130D01*
X66157Y-25953D01*
X66099Y-25939D01*
X65996Y-25934D01*
X65895Y-25950D01*
X65798Y-25984D01*
X65756Y-26008D01*
X65733Y-26099D01*
X66024Y-26390D01*
X66315Y-26099D01*
X66315Y-26241D01*
X66095Y-26461D01*
X66386Y-26752D01*
X66477Y-26729D01*
X66485Y-26712D01*
X66485Y-34989D01*
X66485Y-34989D01*
G37*
G54D20*
X66485Y-34989D02*
X66467Y-34989D01*
X66467Y-28418D01*
X66450Y-28333D01*
X66417Y-28252D01*
X66369Y-28180D01*
X66315Y-28125D01*
X66315Y-26823D01*
X66024Y-26532D01*
X65953Y-26603D01*
X65953Y-26461D01*
X65662Y-26170D01*
X65571Y-26193D01*
X65527Y-26286D01*
X65502Y-26386D01*
X65497Y-26489D01*
X65513Y-26590D01*
X65547Y-26687D01*
X65571Y-26729D01*
X65662Y-26752D01*
X65953Y-26461D01*
X65953Y-26603D01*
X65733Y-26823D01*
X65756Y-26914D01*
X65849Y-26958D01*
X65949Y-26983D01*
X66052Y-26988D01*
X66153Y-26972D01*
X66250Y-26938D01*
X66292Y-26914D01*
X66315Y-26823D01*
X66315Y-28125D01*
X66308Y-28118D01*
X66236Y-28070D01*
X66156Y-28036D01*
X66071Y-28018D01*
X65984Y-28018D01*
X65899Y-28034D01*
X65818Y-28066D01*
X65745Y-28114D01*
X65683Y-28175D01*
X65634Y-28246D01*
X65600Y-28326D01*
X65582Y-28411D01*
X65580Y-28498D01*
X65596Y-28583D01*
X65628Y-28664D01*
X65675Y-28737D01*
X65735Y-28800D01*
X65738Y-28802D01*
X65334Y-29206D01*
X64954Y-29206D01*
X64954Y-26726D01*
X64954Y-26693D01*
X64954Y-26142D01*
X64948Y-26110D01*
X64935Y-26080D01*
X64917Y-26052D01*
X64894Y-26029D01*
X64892Y-26027D01*
X64892Y-23115D01*
X64875Y-23030D01*
X64842Y-22949D01*
X64794Y-22877D01*
X64733Y-22815D01*
X64661Y-22767D01*
X64581Y-22733D01*
X64496Y-22715D01*
X64409Y-22715D01*
X64324Y-22731D01*
X64243Y-22763D01*
X64170Y-22811D01*
X64108Y-22872D01*
X64059Y-22943D01*
X64025Y-23023D01*
X64007Y-23108D01*
X64005Y-23195D01*
X64021Y-23280D01*
X64053Y-23361D01*
X64100Y-23434D01*
X64160Y-23497D01*
X64231Y-23546D01*
X64241Y-23550D01*
X64241Y-24146D01*
X63396Y-24990D01*
X63396Y-23115D01*
X63379Y-23030D01*
X63346Y-22949D01*
X63298Y-22877D01*
X63237Y-22815D01*
X63165Y-22767D01*
X63085Y-22733D01*
X63000Y-22715D01*
X62913Y-22715D01*
X62828Y-22731D01*
X62747Y-22763D01*
X62674Y-22811D01*
X62612Y-22872D01*
X62563Y-22943D01*
X62529Y-23023D01*
X62511Y-23108D01*
X62509Y-23195D01*
X62525Y-23280D01*
X62557Y-23361D01*
X62604Y-23434D01*
X62664Y-23497D01*
X62735Y-23546D01*
X62745Y-23550D01*
X62745Y-24775D01*
X62370Y-25150D01*
X62366Y-25154D01*
X62340Y-25185D01*
X62321Y-25221D01*
X62320Y-25221D01*
X62320Y-25223D01*
X62308Y-25262D01*
X62303Y-25302D01*
X62304Y-25310D01*
X62304Y-26039D01*
X62233Y-26086D01*
X62171Y-26147D01*
X62122Y-26218D01*
X62088Y-26298D01*
X62082Y-26326D01*
X62082Y-24759D01*
X62066Y-24658D01*
X62032Y-24561D01*
X62008Y-24519D01*
X61917Y-24496D01*
X61846Y-24567D01*
X61846Y-24425D01*
X61823Y-24334D01*
X61730Y-24290D01*
X61630Y-24265D01*
X61527Y-24260D01*
X61426Y-24276D01*
X61329Y-24310D01*
X61287Y-24334D01*
X61264Y-24425D01*
X61555Y-24716D01*
X61846Y-24425D01*
X61846Y-24567D01*
X61626Y-24787D01*
X61917Y-25078D01*
X62008Y-25055D01*
X62052Y-24962D01*
X62077Y-24862D01*
X62082Y-24759D01*
X62082Y-26326D01*
X62070Y-26383D01*
X62068Y-26470D01*
X62084Y-26555D01*
X62116Y-26636D01*
X62163Y-26709D01*
X62223Y-26772D01*
X62294Y-26821D01*
X62374Y-26856D01*
X62459Y-26875D01*
X62546Y-26877D01*
X62631Y-26862D01*
X62712Y-26830D01*
X62786Y-26784D01*
X62849Y-26724D01*
X62899Y-26653D01*
X62934Y-26574D01*
X62954Y-26489D01*
X62955Y-26390D01*
X62938Y-26305D01*
X62905Y-26224D01*
X62857Y-26152D01*
X62796Y-26090D01*
X62724Y-26042D01*
X62720Y-26040D01*
X62720Y-25389D01*
X63098Y-25011D01*
X63099Y-25011D01*
X63099Y-25010D01*
X63100Y-25010D01*
X63102Y-25007D01*
X63125Y-24980D01*
X63125Y-24978D01*
X63144Y-24944D01*
X63144Y-24942D01*
X63156Y-24905D01*
X63156Y-24903D01*
X63161Y-24865D01*
X63161Y-24863D01*
X63161Y-24862D01*
X63161Y-23550D01*
X63227Y-23509D01*
X63290Y-23449D01*
X63340Y-23378D01*
X63375Y-23299D01*
X63395Y-23214D01*
X63396Y-23115D01*
X63396Y-24990D01*
X63370Y-25016D01*
X63366Y-25020D01*
X63340Y-25051D01*
X63321Y-25087D01*
X63320Y-25087D01*
X63320Y-25089D01*
X63308Y-25128D01*
X63303Y-25168D01*
X63304Y-25176D01*
X63304Y-26039D01*
X63233Y-26086D01*
X63171Y-26147D01*
X63122Y-26218D01*
X63088Y-26298D01*
X63070Y-26383D01*
X63068Y-26470D01*
X63084Y-26555D01*
X63116Y-26636D01*
X63163Y-26709D01*
X63223Y-26772D01*
X63294Y-26821D01*
X63374Y-26856D01*
X63459Y-26875D01*
X63546Y-26877D01*
X63631Y-26862D01*
X63712Y-26830D01*
X63786Y-26784D01*
X63849Y-26724D01*
X63899Y-26653D01*
X63934Y-26574D01*
X63954Y-26489D01*
X63955Y-26390D01*
X63938Y-26305D01*
X63905Y-26224D01*
X63857Y-26152D01*
X63796Y-26090D01*
X63724Y-26042D01*
X63720Y-26040D01*
X63720Y-25255D01*
X64590Y-24384D01*
X64595Y-24381D01*
X64596Y-24379D01*
X64621Y-24350D01*
X64621Y-24348D01*
X64640Y-24314D01*
X64640Y-24313D01*
X64641Y-24312D01*
X64652Y-24275D01*
X64653Y-24273D01*
X64657Y-24235D01*
X64658Y-24233D01*
X64657Y-24232D01*
X64657Y-24224D01*
X64657Y-23550D01*
X64723Y-23509D01*
X64786Y-23449D01*
X64836Y-23378D01*
X64871Y-23299D01*
X64891Y-23214D01*
X64892Y-23115D01*
X64892Y-26027D01*
X64867Y-26011D01*
X64837Y-25998D01*
X64805Y-25991D01*
X64772Y-25991D01*
X64221Y-25991D01*
X64189Y-25997D01*
X64159Y-26010D01*
X64131Y-26028D01*
X64108Y-26051D01*
X64090Y-26078D01*
X64077Y-26108D01*
X64070Y-26140D01*
X64070Y-26173D01*
X64070Y-26724D01*
X64076Y-26756D01*
X64089Y-26786D01*
X64107Y-26814D01*
X64130Y-26837D01*
X64157Y-26855D01*
X64187Y-26868D01*
X64219Y-26875D01*
X64252Y-26875D01*
X64803Y-26875D01*
X64835Y-26869D01*
X64865Y-26856D01*
X64893Y-26838D01*
X64916Y-26815D01*
X64934Y-26788D01*
X64947Y-26758D01*
X64954Y-26726D01*
X64954Y-29206D01*
X64893Y-29206D01*
X64857Y-29152D01*
X64796Y-29090D01*
X64739Y-29052D01*
X64739Y-28884D01*
X64739Y-28882D01*
X64735Y-28838D01*
X64722Y-28797D01*
X64722Y-28795D01*
X64702Y-28758D01*
X64701Y-28756D01*
X64680Y-28730D01*
X64674Y-28723D01*
X64673Y-28722D01*
X64672Y-28721D01*
X64453Y-28502D01*
X64452Y-28500D01*
X64418Y-28472D01*
X64381Y-28452D01*
X64380Y-28452D01*
X64379Y-28451D01*
X64378Y-28451D01*
X64336Y-28438D01*
X64302Y-28434D01*
X64294Y-28434D01*
X64292Y-28434D01*
X64291Y-28434D01*
X62039Y-28434D01*
X62039Y-26405D01*
X62023Y-26304D01*
X61989Y-26207D01*
X61965Y-26165D01*
X61874Y-26142D01*
X61846Y-26170D01*
X61846Y-25149D01*
X61555Y-24858D01*
X61484Y-24929D01*
X61484Y-24787D01*
X61193Y-24496D01*
X61102Y-24519D01*
X61058Y-24612D01*
X61033Y-24712D01*
X61028Y-24815D01*
X61044Y-24916D01*
X61078Y-25013D01*
X61102Y-25055D01*
X61193Y-25078D01*
X61484Y-24787D01*
X61484Y-24929D01*
X61264Y-25149D01*
X61287Y-25240D01*
X61380Y-25284D01*
X61480Y-25309D01*
X61583Y-25314D01*
X61684Y-25298D01*
X61781Y-25264D01*
X61823Y-25240D01*
X61846Y-25149D01*
X61846Y-26170D01*
X61803Y-26213D01*
X61803Y-26071D01*
X61780Y-25980D01*
X61687Y-25936D01*
X61587Y-25911D01*
X61484Y-25906D01*
X61383Y-25922D01*
X61286Y-25956D01*
X61244Y-25980D01*
X61221Y-26071D01*
X61512Y-26362D01*
X61803Y-26071D01*
X61803Y-26213D01*
X61583Y-26433D01*
X61874Y-26724D01*
X61965Y-26701D01*
X62009Y-26608D01*
X62034Y-26508D01*
X62039Y-26405D01*
X62039Y-28434D01*
X61803Y-28434D01*
X61803Y-26795D01*
X61512Y-26504D01*
X61441Y-26575D01*
X61441Y-26433D01*
X61150Y-26142D01*
X61059Y-26165D01*
X61015Y-26258D01*
X60990Y-26358D01*
X60985Y-26461D01*
X61001Y-26562D01*
X61035Y-26659D01*
X61059Y-26701D01*
X61150Y-26724D01*
X61441Y-26433D01*
X61441Y-26575D01*
X61221Y-26795D01*
X61244Y-26886D01*
X61337Y-26930D01*
X61437Y-26955D01*
X61540Y-26960D01*
X61641Y-26944D01*
X61738Y-26910D01*
X61780Y-26886D01*
X61803Y-26795D01*
X61803Y-28434D01*
X61262Y-28434D01*
X61260Y-28434D01*
X61216Y-28438D01*
X61192Y-28445D01*
X61175Y-28450D01*
X61173Y-28450D01*
X61173Y-28451D01*
X61134Y-28472D01*
X61114Y-28488D01*
X61102Y-28498D01*
X61100Y-28500D01*
X61099Y-28501D01*
X60388Y-29210D01*
X60344Y-29144D01*
X60280Y-29079D01*
X60207Y-29029D01*
X60207Y-28638D01*
X60868Y-27977D01*
X60869Y-27976D01*
X60896Y-27943D01*
X60897Y-27942D01*
X60906Y-27925D01*
X60918Y-27904D01*
X60918Y-27903D01*
X60931Y-27862D01*
X60931Y-27860D01*
X60936Y-27818D01*
X60936Y-27815D01*
X60936Y-25396D01*
X60936Y-25394D01*
X60932Y-25352D01*
X60932Y-25350D01*
X60924Y-25326D01*
X60920Y-25309D01*
X60919Y-25307D01*
X60899Y-25270D01*
X60898Y-25268D01*
X60877Y-25242D01*
X60871Y-25235D01*
X60870Y-25234D01*
X60869Y-25233D01*
X60658Y-25022D01*
X60657Y-25020D01*
X60623Y-24992D01*
X60601Y-24980D01*
X60601Y-23115D01*
X60584Y-23030D01*
X60551Y-22949D01*
X60503Y-22877D01*
X60442Y-22815D01*
X60370Y-22767D01*
X60290Y-22733D01*
X60205Y-22715D01*
X60118Y-22715D01*
X60033Y-22731D01*
X59952Y-22763D01*
X59879Y-22811D01*
X59817Y-22872D01*
X59768Y-22943D01*
X59734Y-23023D01*
X59716Y-23108D01*
X59714Y-23195D01*
X59730Y-23280D01*
X59762Y-23361D01*
X59809Y-23434D01*
X59869Y-23497D01*
X59940Y-23546D01*
X60020Y-23581D01*
X60105Y-23600D01*
X60192Y-23602D01*
X60277Y-23587D01*
X60358Y-23555D01*
X60432Y-23509D01*
X60495Y-23449D01*
X60545Y-23378D01*
X60580Y-23299D01*
X60600Y-23214D01*
X60601Y-23115D01*
X60601Y-24980D01*
X60586Y-24972D01*
X60585Y-24972D01*
X60584Y-24971D01*
X60583Y-24971D01*
X60541Y-24958D01*
X60507Y-24954D01*
X60499Y-24954D01*
X60497Y-24954D01*
X60496Y-24954D01*
X60342Y-24954D01*
X60306Y-24900D01*
X60245Y-24838D01*
X60173Y-24790D01*
X60093Y-24756D01*
X60008Y-24738D01*
X59921Y-24738D01*
X59836Y-24754D01*
X59755Y-24786D01*
X59682Y-24834D01*
X59620Y-24895D01*
X59571Y-24966D01*
X59537Y-25046D01*
X59519Y-25131D01*
X59517Y-25218D01*
X59533Y-25303D01*
X59565Y-25384D01*
X59612Y-25457D01*
X59672Y-25520D01*
X59743Y-25569D01*
X59823Y-25604D01*
X59908Y-25623D01*
X59995Y-25625D01*
X60080Y-25610D01*
X60161Y-25578D01*
X60235Y-25532D01*
X60298Y-25472D01*
X60343Y-25408D01*
X60401Y-25408D01*
X60482Y-25488D01*
X60482Y-27115D01*
X60472Y-27052D01*
X60438Y-26955D01*
X60414Y-26913D01*
X60323Y-26890D01*
X60252Y-26961D01*
X60252Y-26819D01*
X60229Y-26728D01*
X60136Y-26684D01*
X60036Y-26659D01*
X59933Y-26654D01*
X59832Y-26670D01*
X59735Y-26704D01*
X59693Y-26728D01*
X59670Y-26819D01*
X59961Y-27110D01*
X60252Y-26819D01*
X60252Y-26961D01*
X60032Y-27181D01*
X60323Y-27472D01*
X60414Y-27449D01*
X60458Y-27356D01*
X60482Y-27260D01*
X60482Y-27720D01*
X60252Y-27950D01*
X60252Y-27543D01*
X59961Y-27252D01*
X59670Y-27543D01*
X59693Y-27634D01*
X59786Y-27678D01*
X59886Y-27703D01*
X59989Y-27708D01*
X60090Y-27692D01*
X60187Y-27658D01*
X60229Y-27634D01*
X60252Y-27543D01*
X60252Y-27950D01*
X59819Y-28383D01*
X59791Y-28417D01*
X59771Y-28453D01*
X59771Y-28455D01*
X59770Y-28455D01*
X59770Y-28457D01*
X59757Y-28499D01*
X59753Y-28533D01*
X59753Y-28541D01*
X59753Y-28543D01*
X59753Y-28544D01*
X59753Y-29029D01*
X59685Y-29075D01*
X59620Y-29139D01*
X59568Y-29215D01*
X59532Y-29299D01*
X59513Y-29389D01*
X59511Y-29480D01*
X59528Y-29571D01*
X59562Y-29656D01*
X59612Y-29733D01*
X59675Y-29799D01*
X59751Y-29852D01*
X59835Y-29888D01*
X59924Y-29908D01*
X60016Y-29910D01*
X60107Y-29894D01*
X60192Y-29861D01*
X60270Y-29811D01*
X60336Y-29748D01*
X60389Y-29673D01*
X60391Y-29668D01*
X60478Y-29668D01*
X60480Y-29668D01*
X60522Y-29664D01*
X60524Y-29664D01*
X60548Y-29656D01*
X60565Y-29652D01*
X60566Y-29651D01*
X60567Y-29651D01*
X60604Y-29631D01*
X60606Y-29630D01*
X60626Y-29613D01*
X60638Y-29604D01*
X60640Y-29602D01*
X60641Y-29602D01*
X61354Y-28888D01*
X64196Y-28888D01*
X64285Y-28976D01*
X64285Y-29051D01*
X64233Y-29086D01*
X64171Y-29147D01*
X64122Y-29218D01*
X64088Y-29298D01*
X64070Y-29383D01*
X64068Y-29470D01*
X64084Y-29555D01*
X64116Y-29636D01*
X64163Y-29709D01*
X64223Y-29772D01*
X64294Y-29821D01*
X64374Y-29856D01*
X64459Y-29875D01*
X64546Y-29877D01*
X64631Y-29862D01*
X64712Y-29830D01*
X64786Y-29784D01*
X64849Y-29724D01*
X64894Y-29660D01*
X65427Y-29660D01*
X65429Y-29660D01*
X65471Y-29656D01*
X65473Y-29656D01*
X65497Y-29648D01*
X65514Y-29644D01*
X65515Y-29643D01*
X65516Y-29643D01*
X65553Y-29623D01*
X65555Y-29622D01*
X65575Y-29605D01*
X65587Y-29596D01*
X65589Y-29594D01*
X65590Y-29594D01*
X66183Y-29000D01*
X66184Y-28999D01*
X66211Y-28966D01*
X66212Y-28965D01*
X66229Y-28934D01*
X66233Y-28927D01*
X66233Y-28926D01*
X66234Y-28925D01*
X66238Y-28909D01*
X66246Y-28885D01*
X66246Y-28883D01*
X66250Y-28841D01*
X66251Y-28841D01*
X66298Y-28812D01*
X66361Y-28752D01*
X66411Y-28681D01*
X66446Y-28602D01*
X66466Y-28517D01*
X66467Y-28418D01*
X66467Y-34989D01*
X63954Y-34989D01*
X64151Y-34792D01*
X64152Y-34791D01*
X64179Y-34758D01*
X64181Y-34757D01*
X64200Y-34720D01*
X64201Y-34719D01*
X64201Y-34718D01*
X64202Y-34717D01*
X64206Y-34701D01*
X64214Y-34677D01*
X64214Y-34675D01*
X64219Y-34633D01*
X64219Y-34631D01*
X64219Y-34630D01*
X64219Y-34375D01*
X64282Y-34335D01*
X64348Y-34272D01*
X64401Y-34197D01*
X64438Y-34113D01*
X64459Y-34024D01*
X64460Y-33919D01*
X64459Y-33914D01*
X64459Y-33283D01*
X64459Y-33250D01*
X64459Y-32649D01*
X64453Y-32617D01*
X64440Y-32587D01*
X64422Y-32559D01*
X64399Y-32536D01*
X64372Y-32518D01*
X64342Y-32505D01*
X64310Y-32498D01*
X64277Y-32498D01*
X64200Y-32498D01*
X64200Y-32093D01*
X64201Y-32085D01*
X64200Y-32083D01*
X64197Y-32045D01*
X64196Y-32043D01*
X64185Y-32006D01*
X64184Y-32004D01*
X64166Y-31970D01*
X64165Y-31968D01*
X64141Y-31938D01*
X64140Y-31936D01*
X64135Y-31932D01*
X63955Y-31752D01*
X63955Y-29390D01*
X63938Y-29305D01*
X63905Y-29224D01*
X63857Y-29152D01*
X63796Y-29090D01*
X63724Y-29042D01*
X63644Y-29008D01*
X63559Y-28990D01*
X63472Y-28990D01*
X63387Y-29006D01*
X63306Y-29038D01*
X63233Y-29086D01*
X63171Y-29147D01*
X63122Y-29218D01*
X63088Y-29298D01*
X63070Y-29383D01*
X63068Y-29470D01*
X63084Y-29555D01*
X63116Y-29636D01*
X63163Y-29709D01*
X63223Y-29772D01*
X63294Y-29821D01*
X63374Y-29856D01*
X63459Y-29875D01*
X63546Y-29877D01*
X63631Y-29862D01*
X63712Y-29830D01*
X63786Y-29784D01*
X63849Y-29724D01*
X63899Y-29653D01*
X63934Y-29574D01*
X63954Y-29489D01*
X63955Y-29390D01*
X63955Y-31752D01*
X62720Y-30517D01*
X62720Y-29825D01*
X62786Y-29784D01*
X62849Y-29724D01*
X62899Y-29653D01*
X62934Y-29574D01*
X62954Y-29489D01*
X62955Y-29390D01*
X62938Y-29305D01*
X62905Y-29224D01*
X62857Y-29152D01*
X62796Y-29090D01*
X62724Y-29042D01*
X62644Y-29008D01*
X62559Y-28990D01*
X62472Y-28990D01*
X62387Y-29006D01*
X62306Y-29038D01*
X62233Y-29086D01*
X62171Y-29147D01*
X62122Y-29218D01*
X62088Y-29298D01*
X62070Y-29383D01*
X62068Y-29470D01*
X62084Y-29555D01*
X62116Y-29636D01*
X62163Y-29709D01*
X62223Y-29772D01*
X62294Y-29821D01*
X62304Y-29825D01*
X62304Y-30593D01*
X62303Y-30601D01*
X62307Y-30641D01*
X62319Y-30680D01*
X62319Y-30681D01*
X62320Y-30682D01*
X62338Y-30716D01*
X62339Y-30718D01*
X62363Y-30748D01*
X62364Y-30750D01*
X62365Y-30750D01*
X62368Y-30753D01*
X63784Y-32169D01*
X63784Y-32498D01*
X63676Y-32498D01*
X63644Y-32504D01*
X63614Y-32517D01*
X63586Y-32535D01*
X63563Y-32558D01*
X63545Y-32585D01*
X63532Y-32615D01*
X63525Y-32647D01*
X63525Y-32680D01*
X63525Y-33281D01*
X63531Y-33313D01*
X63544Y-33343D01*
X63562Y-33371D01*
X63585Y-33394D01*
X63612Y-33412D01*
X63642Y-33425D01*
X63674Y-33432D01*
X63707Y-33432D01*
X64308Y-33432D01*
X64340Y-33426D01*
X64370Y-33413D01*
X64398Y-33395D01*
X64421Y-33372D01*
X64439Y-33345D01*
X64452Y-33315D01*
X64459Y-33283D01*
X64459Y-33914D01*
X64442Y-33829D01*
X64407Y-33744D01*
X64356Y-33668D01*
X64292Y-33603D01*
X64216Y-33551D01*
X64131Y-33516D01*
X64041Y-33497D01*
X63949Y-33497D01*
X63859Y-33514D01*
X63774Y-33548D01*
X63697Y-33599D01*
X63632Y-33663D01*
X63580Y-33739D01*
X63544Y-33823D01*
X63525Y-33913D01*
X63523Y-34004D01*
X63540Y-34095D01*
X63574Y-34180D01*
X63624Y-34257D01*
X63687Y-34323D01*
X63763Y-34376D01*
X63765Y-34376D01*
X63765Y-34535D01*
X63645Y-34655D01*
X63099Y-34655D01*
X63133Y-34620D01*
X63138Y-34617D01*
X63139Y-34615D01*
X63164Y-34586D01*
X63164Y-34584D01*
X63183Y-34550D01*
X63183Y-34548D01*
X63195Y-34511D01*
X63195Y-34509D01*
X63200Y-34471D01*
X63200Y-34469D01*
X63200Y-34468D01*
X63200Y-34386D01*
X63204Y-34385D01*
X63282Y-34335D01*
X63348Y-34272D01*
X63401Y-34197D01*
X63438Y-34113D01*
X63459Y-34024D01*
X63460Y-33919D01*
X63460Y-32919D01*
X63442Y-32829D01*
X63407Y-32744D01*
X63356Y-32668D01*
X63292Y-32603D01*
X63216Y-32551D01*
X63131Y-32516D01*
X63041Y-32497D01*
X62949Y-32497D01*
X62859Y-32514D01*
X62774Y-32548D01*
X62697Y-32599D01*
X62632Y-32663D01*
X62580Y-32739D01*
X62544Y-32823D01*
X62525Y-32913D01*
X62523Y-33004D01*
X62540Y-33095D01*
X62574Y-33180D01*
X62624Y-33257D01*
X62687Y-33323D01*
X62763Y-33376D01*
X62847Y-33412D01*
X62936Y-33432D01*
X63028Y-33434D01*
X63119Y-33418D01*
X63204Y-33385D01*
X63282Y-33335D01*
X63348Y-33272D01*
X63401Y-33197D01*
X63438Y-33113D01*
X63459Y-33024D01*
X63460Y-32919D01*
X63460Y-33919D01*
X63442Y-33829D01*
X63407Y-33744D01*
X63356Y-33668D01*
X63292Y-33603D01*
X63216Y-33551D01*
X63131Y-33516D01*
X63041Y-33497D01*
X62949Y-33497D01*
X62859Y-33514D01*
X62774Y-33548D01*
X62697Y-33599D01*
X62632Y-33663D01*
X62580Y-33739D01*
X62544Y-33823D01*
X62533Y-33874D01*
X62527Y-33833D01*
X62491Y-33732D01*
X62465Y-33683D01*
X62460Y-33681D01*
X62460Y-32919D01*
X62442Y-32829D01*
X62407Y-32744D01*
X62356Y-32668D01*
X62292Y-32603D01*
X62216Y-32551D01*
X62131Y-32516D01*
X62041Y-32497D01*
X61949Y-32497D01*
X61859Y-32514D01*
X61774Y-32548D01*
X61697Y-32599D01*
X61632Y-32663D01*
X61580Y-32739D01*
X61544Y-32823D01*
X61525Y-32913D01*
X61523Y-33004D01*
X61540Y-33095D01*
X61574Y-33180D01*
X61624Y-33257D01*
X61687Y-33323D01*
X61763Y-33376D01*
X61847Y-33412D01*
X61900Y-33423D01*
X61860Y-33430D01*
X61759Y-33466D01*
X61710Y-33492D01*
X61683Y-33585D01*
X61992Y-33894D01*
X62301Y-33585D01*
X62274Y-33492D01*
X62177Y-33446D01*
X62087Y-33423D01*
X62119Y-33418D01*
X62204Y-33385D01*
X62282Y-33335D01*
X62348Y-33272D01*
X62401Y-33197D01*
X62438Y-33113D01*
X62459Y-33024D01*
X62460Y-32919D01*
X62460Y-33681D01*
X62372Y-33656D01*
X62063Y-33965D01*
X62372Y-34274D01*
X62465Y-34247D01*
X62511Y-34150D01*
X62533Y-34060D01*
X62540Y-34095D01*
X62574Y-34180D01*
X62624Y-34257D01*
X62687Y-34323D01*
X62763Y-34376D01*
X62770Y-34379D01*
X62291Y-34379D01*
X62301Y-34345D01*
X61992Y-34036D01*
X61683Y-34345D01*
X61692Y-34379D01*
X61524Y-34379D01*
X61468Y-34322D01*
X61468Y-34127D01*
X61493Y-34198D01*
X61519Y-34247D01*
X61612Y-34274D01*
X61921Y-33965D01*
X61612Y-33656D01*
X61519Y-33683D01*
X61473Y-33780D01*
X61468Y-33800D01*
X61468Y-31739D01*
X61653Y-31554D01*
X61654Y-31554D01*
X61654Y-31553D01*
X61655Y-31553D01*
X61657Y-31550D01*
X61680Y-31523D01*
X61680Y-31521D01*
X61699Y-31487D01*
X61699Y-31485D01*
X61711Y-31448D01*
X61711Y-31447D01*
X61716Y-31408D01*
X61716Y-31406D01*
X61716Y-31405D01*
X61716Y-30917D01*
X61716Y-30915D01*
X61720Y-30885D01*
X61720Y-30883D01*
X61720Y-30882D01*
X61720Y-29825D01*
X61786Y-29784D01*
X61849Y-29724D01*
X61899Y-29653D01*
X61934Y-29574D01*
X61954Y-29489D01*
X61955Y-29390D01*
X61938Y-29305D01*
X61905Y-29224D01*
X61857Y-29152D01*
X61796Y-29090D01*
X61724Y-29042D01*
X61644Y-29008D01*
X61559Y-28990D01*
X61472Y-28990D01*
X61387Y-29006D01*
X61306Y-29038D01*
X61233Y-29086D01*
X61171Y-29147D01*
X61122Y-29218D01*
X61088Y-29298D01*
X61070Y-29383D01*
X61068Y-29470D01*
X61084Y-29555D01*
X61116Y-29636D01*
X61163Y-29709D01*
X61223Y-29772D01*
X61294Y-29821D01*
X61304Y-29825D01*
X61304Y-30845D01*
X61299Y-30885D01*
X61300Y-30893D01*
X61300Y-31318D01*
X61118Y-31500D01*
X61114Y-31504D01*
X61088Y-31535D01*
X61069Y-31571D01*
X61068Y-31571D01*
X61068Y-31573D01*
X61056Y-31612D01*
X61051Y-31652D01*
X61052Y-31660D01*
X61052Y-34399D01*
X61051Y-34407D01*
X61055Y-34447D01*
X61067Y-34486D01*
X61067Y-34487D01*
X61068Y-34488D01*
X61086Y-34522D01*
X61087Y-34524D01*
X61111Y-34554D01*
X61112Y-34556D01*
X61113Y-34556D01*
X61116Y-34559D01*
X61211Y-34655D01*
X60823Y-34655D01*
X60207Y-34038D01*
X60207Y-30908D01*
X60296Y-30908D01*
X60328Y-30902D01*
X60358Y-30889D01*
X60386Y-30871D01*
X60409Y-30848D01*
X60427Y-30821D01*
X60440Y-30791D01*
X60447Y-30759D01*
X60447Y-30726D01*
X60447Y-30125D01*
X60441Y-30093D01*
X60428Y-30063D01*
X60410Y-30035D01*
X60387Y-30012D01*
X60360Y-29994D01*
X60330Y-29981D01*
X60298Y-29974D01*
X60265Y-29974D01*
X59664Y-29974D01*
X59632Y-29980D01*
X59602Y-29993D01*
X59574Y-30011D01*
X59551Y-30034D01*
X59533Y-30061D01*
X59520Y-30091D01*
X59513Y-30123D01*
X59513Y-30156D01*
X59513Y-30757D01*
X59519Y-30789D01*
X59532Y-30819D01*
X59550Y-30847D01*
X59573Y-30870D01*
X59600Y-30888D01*
X59630Y-30901D01*
X59662Y-30908D01*
X59695Y-30908D01*
X59753Y-30908D01*
X59753Y-34131D01*
X59753Y-34133D01*
X59757Y-34177D01*
X59764Y-34201D01*
X59769Y-34218D01*
X59769Y-34219D01*
X59770Y-34220D01*
X59790Y-34257D01*
X59791Y-34259D01*
X59807Y-34279D01*
X59817Y-34291D01*
X59819Y-34294D01*
X60514Y-34989D01*
X59499Y-34989D01*
X59499Y-27433D01*
X59508Y-27449D01*
X59599Y-27472D01*
X59890Y-27181D01*
X59599Y-26890D01*
X59508Y-26913D01*
X59499Y-26932D01*
X59499Y-16192D01*
X66485Y-16192D01*
X66485Y-26207D01*
X66477Y-26193D01*
X66393Y-26171D01*
X66393Y-24740D01*
X66377Y-24639D01*
X66343Y-24542D01*
X66319Y-24500D01*
X66308Y-24497D01*
X66308Y-22061D01*
X66308Y-22028D01*
X66308Y-21477D01*
X66303Y-21450D01*
X66303Y-17912D01*
X66283Y-17737D01*
X66230Y-17569D01*
X66159Y-17436D01*
X66030Y-17367D01*
X65959Y-17438D01*
X65959Y-17296D01*
X65890Y-17167D01*
X65733Y-17086D01*
X65564Y-17038D01*
X65388Y-17023D01*
X65213Y-17043D01*
X65045Y-17096D01*
X64912Y-17167D01*
X64843Y-17296D01*
X65401Y-17854D01*
X65959Y-17296D01*
X65959Y-17438D01*
X65472Y-17925D01*
X66030Y-18483D01*
X66159Y-18414D01*
X66240Y-18257D01*
X66288Y-18088D01*
X66303Y-17912D01*
X66303Y-21450D01*
X66302Y-21445D01*
X66289Y-21415D01*
X66271Y-21387D01*
X66248Y-21364D01*
X66221Y-21346D01*
X66191Y-21333D01*
X66159Y-21326D01*
X66126Y-21326D01*
X65959Y-21326D01*
X65959Y-18554D01*
X65401Y-17996D01*
X65330Y-18067D01*
X65330Y-17925D01*
X64772Y-17367D01*
X64643Y-17436D01*
X64562Y-17593D01*
X64514Y-17762D01*
X64499Y-17938D01*
X64519Y-18113D01*
X64572Y-18281D01*
X64643Y-18414D01*
X64772Y-18483D01*
X65330Y-17925D01*
X65330Y-18067D01*
X64843Y-18554D01*
X64912Y-18683D01*
X65069Y-18764D01*
X65238Y-18812D01*
X65414Y-18827D01*
X65589Y-18807D01*
X65757Y-18754D01*
X65890Y-18683D01*
X65959Y-18554D01*
X65959Y-21326D01*
X65575Y-21326D01*
X65543Y-21332D01*
X65513Y-21345D01*
X65485Y-21363D01*
X65462Y-21386D01*
X65444Y-21413D01*
X65431Y-21443D01*
X65424Y-21475D01*
X65424Y-21508D01*
X65424Y-21583D01*
X64842Y-21583D01*
X64842Y-21582D01*
X64794Y-21510D01*
X64733Y-21448D01*
X64661Y-21400D01*
X64657Y-21398D01*
X64657Y-19726D01*
X64657Y-19724D01*
X64656Y-19718D01*
X64654Y-19685D01*
X64653Y-19684D01*
X64642Y-19647D01*
X64641Y-19645D01*
X64640Y-19643D01*
X64623Y-19610D01*
X64622Y-19609D01*
X64616Y-19601D01*
X64598Y-19579D01*
X64597Y-19577D01*
X64592Y-19573D01*
X63964Y-18945D01*
X63949Y-18868D01*
X63916Y-18787D01*
X63868Y-18715D01*
X63807Y-18653D01*
X63735Y-18605D01*
X63655Y-18571D01*
X63570Y-18553D01*
X63483Y-18553D01*
X63398Y-18569D01*
X63317Y-18601D01*
X63244Y-18649D01*
X63182Y-18710D01*
X63133Y-18781D01*
X63099Y-18861D01*
X63081Y-18946D01*
X63079Y-19033D01*
X63095Y-19118D01*
X63127Y-19199D01*
X63174Y-19272D01*
X63234Y-19335D01*
X63305Y-19384D01*
X63315Y-19388D01*
X63244Y-19436D01*
X63182Y-19497D01*
X63133Y-19568D01*
X63099Y-19648D01*
X63081Y-19733D01*
X63079Y-19820D01*
X63095Y-19905D01*
X63127Y-19986D01*
X63174Y-20059D01*
X63234Y-20122D01*
X63305Y-20171D01*
X63315Y-20175D01*
X63315Y-21535D01*
X63298Y-21510D01*
X63237Y-21448D01*
X63165Y-21400D01*
X63085Y-21366D01*
X63066Y-21361D01*
X63066Y-18968D01*
X63050Y-18867D01*
X63016Y-18770D01*
X62992Y-18728D01*
X62901Y-18705D01*
X62830Y-18776D01*
X62830Y-18634D01*
X62807Y-18543D01*
X62714Y-18499D01*
X62614Y-18474D01*
X62511Y-18469D01*
X62410Y-18485D01*
X62313Y-18519D01*
X62271Y-18543D01*
X62248Y-18634D01*
X62539Y-18925D01*
X62830Y-18634D01*
X62830Y-18776D01*
X62610Y-18996D01*
X62901Y-19287D01*
X62992Y-19264D01*
X63036Y-19171D01*
X63061Y-19071D01*
X63066Y-18968D01*
X63066Y-21361D01*
X63000Y-21348D01*
X62982Y-21348D01*
X62982Y-19740D01*
X62965Y-19655D01*
X62932Y-19574D01*
X62884Y-19502D01*
X62823Y-19440D01*
X62811Y-19432D01*
X62830Y-19358D01*
X62539Y-19067D01*
X62468Y-19138D01*
X62468Y-18996D01*
X62177Y-18705D01*
X62086Y-18728D01*
X62042Y-18821D01*
X62017Y-18921D01*
X62012Y-19024D01*
X62028Y-19125D01*
X62062Y-19222D01*
X62086Y-19264D01*
X62177Y-19287D01*
X62468Y-18996D01*
X62468Y-19138D01*
X62248Y-19358D01*
X62266Y-19431D01*
X62260Y-19436D01*
X62198Y-19497D01*
X62149Y-19568D01*
X62115Y-19648D01*
X62097Y-19733D01*
X62095Y-19820D01*
X62111Y-19905D01*
X62143Y-19986D01*
X62190Y-20059D01*
X62250Y-20122D01*
X62321Y-20171D01*
X62401Y-20206D01*
X62486Y-20225D01*
X62573Y-20227D01*
X62658Y-20212D01*
X62739Y-20180D01*
X62813Y-20134D01*
X62876Y-20074D01*
X62926Y-20003D01*
X62961Y-19924D01*
X62981Y-19839D01*
X62982Y-19740D01*
X62982Y-21348D01*
X62913Y-21348D01*
X62828Y-21364D01*
X62747Y-21396D01*
X62674Y-21444D01*
X62612Y-21505D01*
X62563Y-21576D01*
X62560Y-21583D01*
X61997Y-21583D01*
X61997Y-21496D01*
X61991Y-21464D01*
X61978Y-21434D01*
X61960Y-21406D01*
X61937Y-21383D01*
X61910Y-21365D01*
X61880Y-21352D01*
X61848Y-21345D01*
X61815Y-21345D01*
X61563Y-21345D01*
X61563Y-17912D01*
X61543Y-17737D01*
X61490Y-17569D01*
X61419Y-17436D01*
X61290Y-17367D01*
X61219Y-17438D01*
X61219Y-17296D01*
X61150Y-17167D01*
X60993Y-17086D01*
X60824Y-17038D01*
X60648Y-17023D01*
X60473Y-17043D01*
X60305Y-17096D01*
X60172Y-17167D01*
X60103Y-17296D01*
X60661Y-17854D01*
X61219Y-17296D01*
X61219Y-17438D01*
X60732Y-17925D01*
X61290Y-18483D01*
X61419Y-18414D01*
X61500Y-18257D01*
X61548Y-18088D01*
X61563Y-17912D01*
X61563Y-21345D01*
X61264Y-21345D01*
X61232Y-21351D01*
X61219Y-21356D01*
X61219Y-18554D01*
X60661Y-17996D01*
X60590Y-18067D01*
X60590Y-17925D01*
X60032Y-17367D01*
X59903Y-17436D01*
X59822Y-17593D01*
X59774Y-17762D01*
X59759Y-17938D01*
X59779Y-18113D01*
X59832Y-18281D01*
X59903Y-18414D01*
X60032Y-18483D01*
X60590Y-17925D01*
X60590Y-18067D01*
X60103Y-18554D01*
X60172Y-18683D01*
X60329Y-18764D01*
X60498Y-18812D01*
X60674Y-18827D01*
X60849Y-18807D01*
X61017Y-18754D01*
X61150Y-18683D01*
X61219Y-18554D01*
X61219Y-21356D01*
X61202Y-21364D01*
X61174Y-21382D01*
X61151Y-21405D01*
X61133Y-21432D01*
X61120Y-21462D01*
X61113Y-21494D01*
X61113Y-21527D01*
X61113Y-21583D01*
X60551Y-21583D01*
X60551Y-21582D01*
X60503Y-21510D01*
X60442Y-21448D01*
X60370Y-21400D01*
X60290Y-21366D01*
X60205Y-21348D01*
X60118Y-21348D01*
X60033Y-21364D01*
X59952Y-21396D01*
X59879Y-21444D01*
X59817Y-21505D01*
X59768Y-21576D01*
X59734Y-21656D01*
X59716Y-21741D01*
X59714Y-21828D01*
X59730Y-21913D01*
X59762Y-21994D01*
X59809Y-22067D01*
X59869Y-22130D01*
X59940Y-22179D01*
X60020Y-22214D01*
X60105Y-22233D01*
X60192Y-22235D01*
X60277Y-22220D01*
X60358Y-22188D01*
X60432Y-22142D01*
X60495Y-22082D01*
X60545Y-22011D01*
X60550Y-21999D01*
X61113Y-21999D01*
X61113Y-22078D01*
X61119Y-22110D01*
X61132Y-22140D01*
X61150Y-22168D01*
X61173Y-22191D01*
X61200Y-22209D01*
X61230Y-22222D01*
X61262Y-22229D01*
X61295Y-22229D01*
X61846Y-22229D01*
X61878Y-22223D01*
X61908Y-22210D01*
X61936Y-22192D01*
X61959Y-22169D01*
X61977Y-22142D01*
X61990Y-22112D01*
X61997Y-22080D01*
X61997Y-22047D01*
X61997Y-21999D01*
X62560Y-21999D01*
X62604Y-22067D01*
X62664Y-22130D01*
X62735Y-22179D01*
X62815Y-22214D01*
X62900Y-22233D01*
X62987Y-22235D01*
X63072Y-22220D01*
X63153Y-22188D01*
X63227Y-22142D01*
X63290Y-22082D01*
X63340Y-22011D01*
X63345Y-21999D01*
X63415Y-21999D01*
X63423Y-22000D01*
X63425Y-21999D01*
X63463Y-21996D01*
X63465Y-21995D01*
X63502Y-21984D01*
X63503Y-21983D01*
X63504Y-21983D01*
X63538Y-21965D01*
X63540Y-21964D01*
X63570Y-21940D01*
X63572Y-21939D01*
X63572Y-21938D01*
X63575Y-21934D01*
X63664Y-21845D01*
X63669Y-21842D01*
X63670Y-21840D01*
X63695Y-21811D01*
X63695Y-21809D01*
X63714Y-21775D01*
X63714Y-21773D01*
X63726Y-21736D01*
X63726Y-21734D01*
X63731Y-21696D01*
X63731Y-21694D01*
X63731Y-21693D01*
X63731Y-20175D01*
X63797Y-20134D01*
X63860Y-20074D01*
X63910Y-20003D01*
X63945Y-19924D01*
X63965Y-19839D01*
X63966Y-19740D01*
X63949Y-19655D01*
X63916Y-19574D01*
X63868Y-19502D01*
X63807Y-19440D01*
X63735Y-19392D01*
X63728Y-19389D01*
X63785Y-19354D01*
X64241Y-19810D01*
X64241Y-21397D01*
X64170Y-21444D01*
X64108Y-21505D01*
X64059Y-21576D01*
X64025Y-21656D01*
X64007Y-21741D01*
X64005Y-21828D01*
X64021Y-21913D01*
X64053Y-21994D01*
X64100Y-22067D01*
X64160Y-22130D01*
X64231Y-22179D01*
X64311Y-22214D01*
X64396Y-22233D01*
X64483Y-22235D01*
X64568Y-22220D01*
X64649Y-22188D01*
X64723Y-22142D01*
X64786Y-22082D01*
X64836Y-22011D01*
X64841Y-21999D01*
X65424Y-21999D01*
X65424Y-22059D01*
X65430Y-22091D01*
X65443Y-22121D01*
X65461Y-22149D01*
X65484Y-22172D01*
X65511Y-22190D01*
X65541Y-22203D01*
X65573Y-22210D01*
X65606Y-22210D01*
X66157Y-22210D01*
X66189Y-22204D01*
X66219Y-22191D01*
X66247Y-22173D01*
X66270Y-22150D01*
X66288Y-22123D01*
X66301Y-22093D01*
X66308Y-22061D01*
X66308Y-24497D01*
X66228Y-24477D01*
X66157Y-24548D01*
X66157Y-24406D01*
X66134Y-24315D01*
X66041Y-24271D01*
X65941Y-24246D01*
X65838Y-24241D01*
X65737Y-24257D01*
X65640Y-24291D01*
X65598Y-24315D01*
X65575Y-24406D01*
X65866Y-24697D01*
X66157Y-24406D01*
X66157Y-24548D01*
X65937Y-24768D01*
X66228Y-25059D01*
X66319Y-25036D01*
X66363Y-24943D01*
X66388Y-24843D01*
X66393Y-24740D01*
X66393Y-26171D01*
X66386Y-26170D01*
X66315Y-26241D01*
X66315Y-26099D01*
X66292Y-26008D01*
X66199Y-25964D01*
X66157Y-25953D01*
X66157Y-25130D01*
X65866Y-24839D01*
X65795Y-24910D01*
X65795Y-24768D01*
X65504Y-24477D01*
X65413Y-24500D01*
X65369Y-24593D01*
X65344Y-24693D01*
X65339Y-24796D01*
X65355Y-24897D01*
X65389Y-24994D01*
X65413Y-25036D01*
X65504Y-25059D01*
X65795Y-24768D01*
X65795Y-24910D01*
X65575Y-25130D01*
X65598Y-25221D01*
X65691Y-25265D01*
X65791Y-25290D01*
X65894Y-25295D01*
X65995Y-25279D01*
X66092Y-25245D01*
X66134Y-25221D01*
X66157Y-25130D01*
X66157Y-25953D01*
X66099Y-25939D01*
X65996Y-25934D01*
X65895Y-25950D01*
X65798Y-25984D01*
X65756Y-26008D01*
X65733Y-26099D01*
X66024Y-26390D01*
X66315Y-26099D01*
X66315Y-26241D01*
X66095Y-26461D01*
X66386Y-26752D01*
X66477Y-26729D01*
X66485Y-26712D01*
X66485Y-34989D01*
M02*
